<?xml version="1.0" encoding="utf-8"?>
<!-- Generator: Adobe Illustrator 24.0.1, SVG Export Plug-In . SVG Version: 6.00 Build 0)  -->
<svg version="1.1" id="Layer_1" xmlns="http://www.w3.org/2000/svg" xmlns:xlink="http://www.w3.org/1999/xlink" x="0px" y="0px"
	 viewBox="0 0 1500 1500" style="enable-background:new 0 0 1500 1500;" xml:space="preserve">
<style type="text/css">
	.st0{fill:url(#SVGID_1_);}
	.st1{fill:#FFFFFF;}
</style>
<title>_</title>
<linearGradient id="SVGID_1_" gradientUnits="userSpaceOnUse" x1="118" y1="-8757.7998" x2="118" y2="-9473" gradientTransform="matrix(-1 0 0 -1 868 -7972.9995)">
	<stop  offset="0" style="stop-color:#272361;stop-opacity:0"/>
	<stop  offset="0.26" style="stop-color:#1D3065;stop-opacity:0.27"/>
	<stop  offset="0.82" style="stop-color:#05536D;stop-opacity:0.95"/>
	<stop  offset="0.86" style="stop-color:#03556E"/>
</linearGradient>
<rect y="784.8" class="st0" width="1500" height="715.2"/>
<image style="overflow:visible;enable-background:new    ;" width="1324" height="333" xlink:href="48619C87.png"  transform="matrix(0.24 0 0 0.24 45.6 36.96)">
</image>
<path class="st1" d="M196.8,1447.7c0-1.8,0.8-2.7,2.5-2.7c0.8,0,1.6,0.2,2.2,0.7l1.4-3.9c-0.5-0.3-1.1-0.6-1.8-0.7
	c-0.7-0.2-1.5-0.3-2.3-0.3c-2.3,0-4.1,0.6-5.3,1.9c-1.3,1.2-1.9,2.9-1.9,5.1v0.8h-2.9v4.2h2.9v14.1h5.4v-14.1h4.6v-4.2h-4.8V1447.7z
	 M235.8,1452.3c1.8,0,3.2,0.9,4.2,2.6l4.2-2.3c-0.7-1.5-1.7-2.7-3.2-3.5c-1.5-0.8-3.2-1.2-5.1-1.2c-2,0-3.8,0.4-5.4,1.2
	c-1.6,0.8-2.8,2-3.7,3.4c-0.9,1.5-1.3,3.1-1.3,5c0,1.8,0.4,3.5,1.3,5c0.9,1.5,2.1,2.6,3.7,3.4c1.6,0.8,3.4,1.2,5.4,1.2
	c2,0,3.7-0.4,5.1-1.2s2.5-2,3.2-3.5l-4.2-2.3c-0.9,1.7-2.3,2.6-4.2,2.6c-1.4,0-2.6-0.5-3.5-1.4c-0.9-0.9-1.4-2.2-1.4-3.8
	s0.5-2.9,1.4-3.8C233.2,1452.7,234.4,1452.3,235.8,1452.3z M159.2,1439.5c-1,0-1.8,0.3-2.4,0.9c-0.6,0.6-0.9,1.3-0.9,2.2
	c0,0.9,0.3,1.6,0.9,2.1s1.4,0.9,2.4,0.9c1,0,1.8-0.3,2.4-0.9c0.6-0.6,0.9-1.3,0.9-2.2c0-0.8-0.3-1.5-0.9-2.1
	S160.2,1439.5,159.2,1439.5z M178.3,1447.8c-1.3,0-2.4,0.2-3.5,0.6c-1.1,0.4-2,1-2.7,1.8v-2.2h-5.2v18.7h5.4v-9.2
	c0-1.7,0.4-2.9,1.2-3.8c0.8-0.8,1.9-1.3,3.3-1.3c1.2,0,2.2,0.4,2.8,1.1c0.6,0.7,1,1.8,1,3.3v9.8h5.4v-10.7c0-2.7-0.7-4.8-2.1-6.2
	S180.6,1447.8,178.3,1447.8z M136.7,1460.7l-4.4-12.6h-4.6l-4.6,12.6l-4.4-12.6H114h-0.4h-4.4l-4.5,12.6l-4.4-12.6h-4.6l-4.6,12.6
	l-4.4-12.6h-4.7h-0.4h-4.4l-4.5,12.6l-4.4-12.6h-4.6l-4.6,12.6l-4.4-12.6h-5.1l6.7,18.7h5.2l4.3-11.6l4.2,11.6h5.2l6.6-18.1
	l6.5,18.1h5.2l4.3-11.6l4.2,11.6h5.2l6.6-18.1l6.5,18.1h5.2l4.3-11.6l4.2,11.6h5.2l6.8-18.7h-4.8L136.7,1460.7z M149.5,1460.3
	c-0.9,0-1.7,0.3-2.4,0.9c-0.6,0.6-1,1.4-1,2.4c0,1,0.3,1.8,1,2.4c0.6,0.6,1.4,1,2.4,1c0.9,0,1.7-0.3,2.4-1c0.6-0.6,1-1.5,1-2.4
	c0-1-0.3-1.8-1-2.4C151.2,1460.6,150.4,1460.3,149.5,1460.3z M156.5,1466.8h5.4v-18.7h-5.4V1466.8z M247.3,1466.8h5.4v-18.7h-5.4
	V1466.8z M218.2,1449.1c-1.5-0.8-3.3-1.2-5.3-1.2c-2,0-3.7,0.4-5.3,1.2c-1.6,0.8-2.8,2-3.7,3.4s-1.3,3.1-1.3,5c0,1.8,0.4,3.5,1.3,5
	s2.1,2.6,3.7,3.4s3.3,1.2,5.3,1.2c2,0,3.7-0.4,5.3-1.2c1.5-0.8,2.8-2,3.6-3.4s1.3-3.1,1.3-5c0-1.8-0.4-3.5-1.3-5
	S219.8,1449.9,218.2,1449.1z M216.4,1461.2c-0.9,0.9-2,1.4-3.4,1.4c-1.4,0-2.5-0.5-3.4-1.4c-0.9-0.9-1.4-2.2-1.4-3.8
	c0-1.6,0.5-2.8,1.4-3.8s2-1.4,3.4-1.4c1.4,0,2.5,0.5,3.4,1.4c0.9,0.9,1.3,2.2,1.3,3.8C217.7,1459,217.3,1460.2,216.4,1461.2z
	 M367.7,1452.3c1.8,0,3.2,0.9,4.2,2.6l4.2-2.3c-0.7-1.5-1.7-2.7-3.2-3.5c-1.5-0.8-3.2-1.2-5.1-1.2c-2,0-3.8,0.4-5.4,1.2
	c-1.6,0.8-2.8,2-3.7,3.4c-0.9,1.5-1.3,3.1-1.3,5c0,1.8,0.4,3.5,1.3,5c0.9,1.5,2.1,2.6,3.7,3.4c1.6,0.8,3.4,1.2,5.4,1.2
	c2,0,3.7-0.4,5.1-1.2s2.5-2,3.2-3.5l-4.2-2.3c-0.9,1.7-2.3,2.6-4.2,2.6c-1.4,0-2.6-0.5-3.5-1.4c-0.9-0.9-1.4-2.2-1.4-3.8
	s0.5-2.9,1.4-3.8C365.1,1452.7,366.3,1452.3,367.7,1452.3z M351.9,1460.3c-0.9,0-1.7,0.3-2.4,0.9c-0.6,0.6-1,1.4-1,2.4
	c0,1,0.3,1.8,1,2.4c0.6,0.6,1.4,1,2.4,1c0.9,0,1.7-0.3,2.4-1c0.6-0.6,1-1.5,1-2.4c0-1-0.3-1.8-1-2.4
	C353.7,1460.6,352.9,1460.3,351.9,1460.3z M396.8,1452.5c-0.9-1.5-2.1-2.6-3.6-3.4c-1.5-0.8-3.3-1.2-5.3-1.2c-2,0-3.7,0.4-5.3,1.2
	c-1.6,0.8-2.8,2-3.7,3.4s-1.3,3.1-1.3,5c0,1.8,0.4,3.5,1.3,5s2.1,2.6,3.7,3.4s3.3,1.2,5.3,1.2c2,0,3.7-0.4,5.3-1.2
	c1.5-0.8,2.8-2,3.6-3.4s1.3-3.1,1.3-5C398.1,1455.6,397.6,1453.9,396.8,1452.5z M391.3,1461.2c-0.9,0.9-2,1.4-3.4,1.4
	c-1.4,0-2.5-0.5-3.4-1.4c-0.9-0.9-1.4-2.2-1.4-3.8c0-1.6,0.5-2.8,1.4-3.8s2-1.4,3.4-1.4c1.4,0,2.5,0.5,3.4,1.4
	c0.9,0.9,1.3,2.2,1.3,3.8C392.6,1459,392.1,1460.2,391.3,1461.2z M342.1,1439.5c-1,0-1.8,0.3-2.4,0.9c-0.6,0.6-0.9,1.3-0.9,2.2
	c0,0.9,0.3,1.6,0.9,2.1s1.4,0.9,2.4,0.9c1,0,1.8-0.3,2.4-0.9c0.6-0.6,0.9-1.3,0.9-2.2c0-0.8-0.3-1.5-0.9-2.1
	S343.1,1439.5,342.1,1439.5z M250,1439.5c-1,0-1.8,0.3-2.4,0.9c-0.6,0.6-0.9,1.3-0.9,2.2c0,0.9,0.3,1.6,0.9,2.1s1.4,0.9,2.4,0.9
	c1,0,1.8-0.3,2.4-0.9c0.6-0.6,0.9-1.3,0.9-2.2c0-0.8-0.3-1.5-0.9-2.1S251,1439.5,250,1439.5z M301.6,1447.8c-1.5,0-3,0.2-4.4,0.6
	c-1.4,0.4-2.6,0.9-3.7,1.7l1.9,3.8c0.7-0.5,1.5-1,2.4-1.3c1-0.3,1.9-0.5,2.9-0.5c1.4,0,2.5,0.3,3.2,1c0.7,0.6,1.1,1.5,1.1,2.7h-4.3
	c-2.7,0-4.7,0.5-6,1.5c-1.3,1-2,2.4-2,4.1c0,1.1,0.3,2.1,0.8,2.9c0.6,0.9,1.4,1.5,2.4,2c1.1,0.5,2.3,0.7,3.7,0.7
	c2.8,0,4.7-0.9,5.7-2.6v2.3h5.1v-10.6c0-2.8-0.8-4.8-2.3-6.2C306.7,1448.5,304.5,1447.8,301.6,1447.8z M305.2,1460.9
	c-0.3,0.8-0.8,1.5-1.5,1.9s-1.5,0.6-2.5,0.6c-0.9,0-1.7-0.2-2.2-0.6s-0.8-1-0.8-1.6c0-1.5,1.1-2.2,3.3-2.2h3.7V1460.9z
	 M281.6,1447.8c-1.4,0-2.7,0.3-3.8,0.8c-1.2,0.5-2.1,1.3-2.9,2.3c-0.6-1-1.5-1.8-2.6-2.3c-1.1-0.5-2.3-0.8-3.6-0.8
	c-1.2,0-2.3,0.2-3.3,0.6s-1.9,1-2.5,1.8v-2.1h-5.2v18.7h5.4v-9.4c0-1.6,0.4-2.8,1.1-3.7c0.7-0.8,1.7-1.2,3-1.2
	c2.4,0,3.5,1.5,3.5,4.4v9.8h5.4v-9.4c0-1.6,0.4-2.8,1.1-3.7c0.7-0.8,1.7-1.2,3-1.2c1.1,0,2,0.4,2.6,1.1c0.6,0.7,0.9,1.8,0.9,3.3v9.8
	h5.4v-10.7c0-2.8-0.7-4.8-2.1-6.2C285.8,1448.5,283.9,1447.8,281.6,1447.8z M326.8,1447.8c-1.2,0-2.3,0.2-3.3,0.6
	c-1,0.4-1.9,0.9-2.6,1.6v-9h-5.4v25.7h5.4v-9.2c0-1.7,0.4-2.9,1.2-3.8c0.8-0.8,1.9-1.3,3.3-1.3c1.2,0,2.2,0.4,2.8,1.1
	c0.6,0.7,1,1.8,1,3.3v9.8h5.4v-10.7c0-2.7-0.7-4.8-2.1-6.2S329.1,1447.8,326.8,1447.8z M339.4,1466.8h5.4v-18.7h-5.4V1466.8z"/>
<path class="st1" d="M618.4,1445.9H601c-2.2,0-4,1.8-4,4v17.4c0,2.2,1.8,4,4,4h17.4c2.2,0,4-1.8,4-4v-17.4
	C622.4,1447.7,620.6,1445.9,618.4,1445.9z M615.1,1449.4c0-0.4,0.3-0.7,0.7-0.7h3.1c0.4,0,0.7,0.3,0.7,0.7v3.1
	c0,0.4-0.3,0.7-0.7,0.7h-3.1c-0.4,0-0.7-0.3-0.7-0.7V1449.4z M605.1,1456.7c1-2.6,3.9-3.8,6.5-2.8s3.8,3.9,2.8,6.5s-3.9,3.8-6.5,2.8
	c-1.9-0.8-3.2-2.6-3.2-4.7C604.7,1457.9,604.8,1457.3,605.1,1456.7z M619.7,1467.3c0,0.7-0.6,1.3-1.3,1.3H601
	c-0.7,0-1.3-0.6-1.3-1.3v-10.5h2.5c-0.1,0.6-0.2,1.2-0.2,1.8c-0.2,4.2,3.2,7.8,7.4,8s7.8-3.2,8-7.4c0-0.2,0-0.4,0-0.6
	c0-0.6-0.1-1.2-0.2-1.8h2.5V1467.3z M658.8,1447.4c-0.6,0-1,0.2-1.4,0.5c-0.4,0.4-0.6,0.8-0.6,1.3c0,0.5,0.2,1,0.6,1.3
	c0.4,0.4,0.8,0.5,1.4,0.5c0.6,0,1-0.2,1.4-0.5c0.4-0.4,0.5-0.8,0.5-1.4c0-0.5-0.2-0.9-0.6-1.3
	C659.8,1447.6,659.3,1447.4,658.8,1447.4z M657.2,1466.3h3.1v-13.1h-3.1V1466.3z M671.7,1453.1c-1,0-1.8,0.2-2.6,0.5
	c-0.8,0.3-1.4,0.8-1.9,1.4v-1.7h-2.9v13.1h3.1v-6.6c0-1.3,0.3-2.2,1-2.9c0.7-0.7,1.5-1,2.7-1c1,0,1.8,0.3,2.3,0.9s0.8,1.4,0.8,2.6
	v7.1h3.1v-7.5c0-1.9-0.5-3.3-1.5-4.3C674.7,1453.6,673.3,1453.1,671.7,1453.1z M648.7,1450.3c-1.7-0.9-3.7-1.4-5.9-1.4
	c-2.3,0-4.3,0.5-6.1,1.4c-1.8,1-3.1,2.3-4.1,4c-1,1.7-1.5,3.6-1.5,5.7c0,2.2,0.5,4.1,1.5,5.8c1,1.7,2.3,3,4.1,4c1.8,1,3.8,1.4,6,1.4
	c0.9,0,1.9-0.1,2.9-0.3c1-0.2,1.8-0.5,2.5-0.9l-0.7-2c-0.7,0.4-1.5,0.6-2.3,0.8c-0.8,0.2-1.6,0.3-2.4,0.3c-1.8,0-3.5-0.4-4.9-1.2
	c-1.4-0.8-2.5-1.9-3.3-3.2c-0.8-1.4-1.2-3-1.2-4.8c0-1.8,0.4-3.3,1.2-4.7c0.8-1.4,1.9-2.5,3.3-3.2c1.4-0.8,3.1-1.2,4.9-1.2
	c1.8,0,3.5,0.4,4.9,1.1c1.4,0.7,2.5,1.8,3.3,3.1c0.8,1.3,1.2,2.8,1.2,4.6c0,1.4-0.2,2.5-0.5,3.3c-0.4,0.8-0.9,1.1-1.5,1.1
	c-0.4,0-0.7-0.1-0.9-0.4c-0.2-0.3-0.4-0.7-0.4-1.3v-8.3h-2.7v1.6c-0.5-0.6-1.1-1-1.7-1.3s-1.5-0.4-2.3-0.4c-1.1,0-2.1,0.3-3,0.8
	c-0.9,0.5-1.6,1.3-2.1,2.2c-0.5,0.9-0.8,2-0.8,3.2c0,1.2,0.3,2.3,0.8,3.2c0.5,0.9,1.2,1.7,2.1,2.2c0.9,0.5,1.9,0.8,3,0.8
	c2,0,3.4-0.7,4.4-2.1c0.2,0.7,0.6,1.2,1.1,1.6s1.2,0.5,2,0.5c1.5,0,2.6-0.6,3.4-1.8c0.8-1.2,1.2-2.9,1.2-5c0-2.1-0.5-3.9-1.5-5.5
	S650.4,1451.2,648.7,1450.3z M645.1,1463c-0.7,0.7-1.5,1-2.6,1c-1.1,0-1.9-0.4-2.6-1.1c-0.7-0.7-1-1.6-1-2.8c0-1.2,0.3-2.1,1-2.8
	c0.7-0.7,1.5-1,2.6-1c1.1,0,1.9,0.3,2.6,1c0.7,0.7,1,1.6,1,2.8C646.1,1461.4,645.8,1462.3,645.1,1463z M686.3,1450.4
	c0.6,0,1.2,0.2,1.7,0.5l0.9-2.3c-0.7-0.5-1.6-0.7-2.8-0.7c-1.5,0-2.6,0.4-3.4,1.2c-0.8,0.8-1.2,1.9-1.2,3.3v0.8h-2.2v2.4h2.2v10.5
	h3.1v-10.5h3.5v-2.4h-3.6v-0.8C684.4,1451.1,685,1450.4,686.3,1450.4z M721.4,1447.4c-0.6,0-1,0.2-1.4,0.5c-0.4,0.4-0.6,0.8-0.6,1.3
	c0,0.5,0.2,1,0.6,1.3c0.4,0.4,0.8,0.5,1.4,0.5c0.6,0,1-0.2,1.4-0.5c0.4-0.4,0.5-0.8,0.5-1.4c0-0.5-0.2-0.9-0.6-1.3
	C722.4,1447.6,721.9,1447.4,721.4,1447.4z M699.3,1453.9c-1.1-0.6-2.3-0.9-3.6-0.9c-1.3,0-2.5,0.3-3.6,0.9s-1.9,1.4-2.5,2.4
	c-0.6,1-0.9,2.2-0.9,3.4s0.3,2.4,0.9,3.5c0.6,1,1.4,1.8,2.5,2.4s2.2,0.9,3.6,0.9c1.3,0,2.5-0.3,3.6-0.9c1.1-0.6,1.9-1.4,2.5-2.4
	c0.6-1,0.9-2.2,0.9-3.5s-0.3-2.4-0.9-3.4C701.2,1455.3,700.4,1454.5,699.3,1453.9z M698.5,1462.7c-0.7,0.8-1.7,1.1-2.8,1.1
	c-1.1,0-2-0.4-2.8-1.1c-0.7-0.7-1.1-1.7-1.1-3s0.4-2.2,1.1-3c0.7-0.8,1.6-1.1,2.8-1.1c1.1,0,2.1,0.4,2.8,1.1c0.7,0.7,1.1,1.7,1.1,3
	S699.2,1462,698.5,1462.7z M784.2,1466.3h3.1v-13.1h-3.1V1466.3z M785.7,1447.4c-0.6,0-1,0.2-1.4,0.5s-0.6,0.8-0.6,1.3
	c0,0.5,0.2,1,0.6,1.3c0.4,0.4,0.8,0.5,1.4,0.5c0.6,0,1-0.2,1.4-0.5c0.4-0.4,0.5-0.8,0.5-1.4c0-0.5-0.2-0.9-0.6-1.3
	S786.3,1447.4,785.7,1447.4z M757.6,1453.1c-1.1,0-2.1,0.1-3.1,0.4c-1,0.3-1.8,0.7-2.5,1.2l1.2,2.2c0.5-0.4,1.1-0.7,1.8-1
	c0.7-0.2,1.4-0.3,2.2-0.3c1.1,0,1.9,0.2,2.4,0.7c0.5,0.5,0.8,1.2,0.8,2.1v0.2h-3.4c-1.9,0-3.2,0.4-4.1,1.1c-0.9,0.7-1.3,1.7-1.3,2.8
	c0,0.8,0.2,1.4,0.6,2c0.4,0.6,1,1.1,1.7,1.4s1.6,0.5,2.6,0.5s1.8-0.2,2.5-0.5c0.7-0.3,1.2-0.7,1.6-1.3v1.6h2.9v-7.6
	c0-1.9-0.5-3.2-1.5-4.2C761,1453.5,759.5,1453.1,757.6,1453.1z M760.5,1462.2c-0.2,0.7-0.7,1.2-1.3,1.5s-1.3,0.5-2,0.5
	c-0.8,0-1.4-0.2-1.8-0.5c-0.4-0.3-0.7-0.8-0.7-1.3c0-1.2,0.9-1.7,2.6-1.7h3.2V1462.2z M774.9,1453.1c-0.9,0-1.7,0.1-2.5,0.4
	s-1.4,0.7-1.9,1.2v-6.6h-3.1v18.1h3.1v-6.6c0-1.3,0.3-2.2,1-2.9c0.7-0.7,1.5-1,2.7-1c1,0,1.8,0.3,2.3,0.9c0.5,0.6,0.8,1.4,0.8,2.6
	v7.1h3.1v-7.5c0-1.9-0.5-3.3-1.5-4.3C777.8,1453.6,776.5,1453.1,774.9,1453.1z M719.8,1466.3h3.1v-13.1h-3.1V1466.3z M743.4,1453.1
	c-1,0-2,0.2-2.8,0.6s-1.5,0.9-2.1,1.6c-0.4-0.7-1-1.3-1.8-1.6c-0.8-0.4-1.6-0.5-2.6-0.5c-0.9,0-1.7,0.2-2.4,0.5
	c-0.7,0.3-1.3,0.8-1.8,1.3v-1.7h-2.9v13.1h3.1v-6.6c0-1.3,0.3-2.2,0.9-2.9s1.4-1,2.5-1c0.9,0,1.7,0.3,2.2,0.9
	c0.5,0.6,0.8,1.4,0.8,2.6v7.1h3.1v-6.6c0-1.3,0.3-2.2,0.9-2.9c0.6-0.7,1.4-1,2.5-1c0.9,0,1.7,0.3,2.2,0.9c0.5,0.6,0.8,1.4,0.8,2.6
	v7.1h3.1v-7.5c0-1.9-0.5-3.3-1.4-4.3C746.3,1453.6,745,1453.1,743.4,1453.1z M711.6,1455.7c0.7,0,1.3,0.2,1.8,0.5
	c0.6,0.3,1,0.8,1.4,1.4l2.3-1.4c-0.5-1-1.2-1.7-2.2-2.2c-1-0.5-2.1-0.8-3.4-0.8c-1.4,0-2.6,0.3-3.7,0.9c-1.1,0.6-1.9,1.4-2.5,2.4
	c-0.6,1-0.9,2.2-0.9,3.4s0.3,2.4,0.9,3.5c0.6,1,1.4,1.8,2.5,2.4c1.1,0.6,2.3,0.9,3.6,0.9c1.3,0,2.4-0.3,3.4-0.8
	c1-0.5,1.7-1.3,2.2-2.3l-2.3-1.4c-0.4,0.6-0.8,1.1-1.4,1.4c-0.6,0.3-1.2,0.5-1.8,0.5c-1.2,0-2.1-0.4-2.8-1.1c-0.7-0.7-1.1-1.7-1.1-3
	s0.4-2.2,1.1-3C709.5,1456,710.4,1455.7,711.6,1455.7z M792.2,1462.4c-0.6,0-1,0.2-1.4,0.6c-0.4,0.4-0.6,0.9-0.6,1.5
	c0,0.6,0.2,1.1,0.6,1.5c0.4,0.4,0.9,0.6,1.4,0.6s1-0.2,1.4-0.6c0.4-0.4,0.6-0.9,0.6-1.5c0-0.6-0.2-1.1-0.6-1.5
	C793.3,1462.6,792.8,1462.4,792.2,1462.4z M802.9,1455.7c0.7,0,1.3,0.2,1.8,0.5c0.6,0.3,1,0.8,1.4,1.4l2.3-1.4
	c-0.5-1-1.2-1.7-2.2-2.2s-2.1-0.8-3.4-0.8c-1.4,0-2.6,0.3-3.7,0.9c-1.1,0.6-1.9,1.4-2.5,2.4c-0.6,1-0.9,2.2-0.9,3.4s0.3,2.4,0.9,3.5
	c0.6,1,1.4,1.8,2.5,2.4s2.3,0.9,3.6,0.9c1.3,0,2.4-0.3,3.4-0.8s1.7-1.3,2.2-2.3l-2.3-1.4c-0.4,0.6-0.8,1.1-1.4,1.4
	c-0.6,0.3-1.2,0.5-1.8,0.5c-1.2,0-2.1-0.4-2.8-1.1s-1.1-1.7-1.1-3s0.4-2.2,1.1-3C800.8,1456,801.8,1455.7,802.9,1455.7z
	 M820.4,1453.9c-1.1-0.6-2.3-0.9-3.6-0.9c-1.3,0-2.5,0.3-3.6,0.9c-1.1,0.6-1.9,1.4-2.5,2.4c-0.6,1-0.9,2.2-0.9,3.4s0.3,2.4,0.9,3.5
	c0.6,1,1.4,1.8,2.5,2.4c1.1,0.6,2.2,0.9,3.6,0.9c1.3,0,2.5-0.3,3.6-0.9c1.1-0.6,1.9-1.4,2.5-2.4c0.6-1,0.9-2.2,0.9-3.5
	s-0.3-2.4-0.9-3.4C822.3,1455.3,821.5,1454.5,820.4,1453.9z M819.6,1462.7c-0.7,0.8-1.7,1.1-2.8,1.1s-2-0.4-2.8-1.1
	c-0.7-0.7-1.1-1.7-1.1-3s0.4-2.2,1.1-3c0.7-0.8,1.7-1.1,2.8-1.1s2.1,0.4,2.8,1.1c0.7,0.7,1.1,1.7,1.1,3S820.3,1462,819.6,1462.7z
	 M861.7,1448.2L861.7,1448.2c-1.2,0.6-2.3,1-3.5,1.3c-0.1,0-0.2,0-0.3-0.1c-1.2-1.3-3-1.9-4.8-1.7c-3.2,0.4-5.5,3.3-5.1,6.5
	c0,0.2,0.1,0.4,0.1,0.6c-4.7-0.3-9-2.5-12-6.1c-0.7,1.2-0.9,2.8-0.6,4.2c0.3,1.4,1.2,2.7,2.4,3.5c-0.9,0-1.8-0.3-2.6-0.7
	c-0.1,1.1,0.2,2.2,0.8,3.1c0.9,1.4,2.2,2.4,3.8,2.7h-0.1c-0.8,0.2-1.7,0.3-2.5,0.1c0.8,2.3,2.9,3.9,5.4,4c-0.9,0.7-1.8,1.3-2.8,1.9
	c-1.8,0.8-3.8,1-5.8,0.8l0.1,0.1c2.8,1.8,6,2.6,9.3,2.5c1.1,0,2.2-0.2,3.3-0.4c3.1-0.7,5.8-2.2,8-4.5c1.3-1.3,2.4-2.9,3.2-4.6
	c0.8-1.6,1.3-3.4,1.5-5.2c0.1-0.9,0.1-1.7,0.1-2.6c0-0.1,0-0.2,0.1-0.2c0.8-0.6,1.5-1.2,2.1-2c0.3-0.3,0.5-0.6,0.7-0.9
	c-1.1,0.5-2.2,0.8-3.3,0.9C860.4,1450.6,861.3,1449.5,861.7,1448.2z M911,1451.6c-1,0-1.8,0.2-2.6,0.5s-1.4,0.8-1.9,1.4v-1.7h-2.9
	v13.1h3.1v-6.6c0-1.3,0.3-2.2,1-2.9c0.7-0.7,1.5-1,2.7-1c1,0,1.8,0.3,2.3,0.9s0.8,1.4,0.8,2.6v7.1h3.1v-7.5c0-1.9-0.5-3.3-1.5-4.3
	C914,1452.1,912.7,1451.6,911,1451.6z M898.1,1446c-0.6,0-1,0.2-1.4,0.5s-0.6,0.8-0.6,1.3c0,0.5,0.2,1,0.6,1.3
	c0.4,0.4,0.8,0.5,1.4,0.5c0.6,0,1-0.2,1.4-0.5c0.4-0.4,0.5-0.8,0.5-1.4c0-0.5-0.2-0.9-0.6-1.3C899.1,1446.1,898.6,1446,898.1,1446z
	 M896.5,1464.8h3.1v-13.1h-3.1V1464.8z M888,1448.9c-1.7-0.9-3.7-1.4-5.9-1.4c-2.3,0-4.3,0.5-6.1,1.4c-1.8,1-3.1,2.3-4.1,4
	c-1,1.7-1.5,3.6-1.5,5.7c0,2.2,0.5,4.1,1.5,5.8c1,1.7,2.3,3,4.1,4c1.8,1,3.8,1.4,6,1.4c0.9,0,1.9-0.1,2.9-0.3s1.8-0.5,2.5-0.9
	l-0.7-2c-0.7,0.4-1.5,0.6-2.3,0.8c-0.8,0.2-1.6,0.3-2.4,0.3c-1.8,0-3.5-0.4-4.9-1.2c-1.4-0.8-2.5-1.9-3.3-3.2
	c-0.8-1.4-1.2-3-1.2-4.8c0-1.8,0.4-3.3,1.2-4.7c0.8-1.4,1.9-2.5,3.3-3.2c1.4-0.8,3.1-1.2,4.9-1.2c1.8,0,3.5,0.4,4.9,1.1
	c1.4,0.7,2.5,1.8,3.3,3.1c0.8,1.3,1.2,2.8,1.2,4.6c0,1.4-0.2,2.5-0.5,3.3c-0.3,0.8-0.9,1.1-1.5,1.1c-0.4,0-0.7-0.1-0.9-0.4
	c-0.2-0.3-0.4-0.7-0.4-1.3v-8.3h-2.7v1.6c-0.5-0.6-1.1-1-1.7-1.3c-0.7-0.3-1.5-0.4-2.3-0.4c-1.1,0-2.1,0.3-3,0.8
	c-0.9,0.5-1.6,1.3-2.1,2.2c-0.5,0.9-0.8,2-0.8,3.2c0,1.2,0.3,2.3,0.8,3.2s1.2,1.7,2.1,2.2c0.9,0.5,1.9,0.8,3,0.8
	c2,0,3.4-0.7,4.4-2.1c0.2,0.7,0.6,1.2,1.1,1.6c0.5,0.4,1.2,0.5,2,0.5c1.5,0,2.6-0.6,3.4-1.8c0.8-1.2,1.2-2.9,1.2-5
	c0-2.1-0.5-3.9-1.5-5.5C891.1,1451.1,889.7,1449.8,888,1448.9z M884.4,1461.6c-0.7,0.7-1.5,1-2.6,1c-1.1,0-1.9-0.4-2.6-1.1
	c-0.7-0.7-1-1.6-1-2.8c0-1.2,0.3-2.1,1-2.8c0.7-0.7,1.5-1,2.6-1c1.1,0,1.9,0.3,2.6,1c0.7,0.7,1,1.6,1,2.8
	C885.4,1459.9,885.1,1460.9,884.4,1461.6z M925.6,1449c0.6,0,1.2,0.2,1.7,0.5l0.9-2.3c-0.7-0.5-1.6-0.7-2.8-0.7
	c-1.5,0-2.6,0.4-3.4,1.2s-1.2,1.9-1.2,3.3v0.8h-2.2v2.4h2.2v10.5h3.1v-10.5h3.5v-2.4h-3.6v-0.8C923.7,1449.7,924.4,1449,925.6,1449z
	 M950.9,1454.2c0.7,0,1.3,0.2,1.8,0.5c0.6,0.3,1,0.8,1.4,1.4l2.3-1.4c-0.5-1-1.2-1.7-2.2-2.2c-1-0.5-2.1-0.8-3.4-0.8
	c-1.4,0-2.6,0.3-3.7,0.9s-1.9,1.4-2.5,2.4c-0.6,1-0.9,2.2-0.9,3.4s0.3,2.4,0.9,3.5c0.6,1,1.4,1.8,2.5,2.4c1.1,0.6,2.3,0.9,3.6,0.9
	c1.3,0,2.4-0.3,3.4-0.8c1-0.5,1.7-1.3,2.2-2.3l-2.3-1.4c-0.4,0.6-0.8,1.1-1.4,1.4c-0.6,0.3-1.2,0.5-1.8,0.5c-1.2,0-2.1-0.4-2.8-1.1
	c-0.7-0.7-1.1-1.7-1.1-3s0.4-2.2,1.1-3C948.8,1454.6,949.8,1454.2,950.9,1454.2z M959.1,1464.8h3.1v-13.1h-3.1V1464.8z M960.7,1446
	c-0.6,0-1,0.2-1.4,0.5s-0.6,0.8-0.6,1.3c0,0.5,0.2,1,0.6,1.3c0.4,0.4,0.8,0.5,1.4,0.5c0.6,0,1-0.2,1.4-0.5c0.4-0.4,0.5-0.8,0.5-1.4
	c0-0.5-0.2-0.9-0.6-1.3S961.2,1446,960.7,1446z M938.6,1452.5c-1.1-0.6-2.3-0.9-3.6-0.9c-1.3,0-2.5,0.3-3.6,0.9
	c-1.1,0.6-1.9,1.4-2.5,2.4c-0.6,1-0.9,2.2-0.9,3.4s0.3,2.4,0.9,3.5c0.6,1,1.4,1.8,2.5,2.4c1.1,0.6,2.2,0.9,3.6,0.9
	c1.3,0,2.5-0.3,3.6-0.9s1.9-1.4,2.5-2.4c0.6-1,0.9-2.2,0.9-3.5s-0.3-2.4-0.9-3.4C940.5,1453.9,939.7,1453.1,938.6,1452.5z
	 M937.8,1461.3c-0.7,0.8-1.7,1.1-2.8,1.1c-1.1,0-2-0.4-2.8-1.1c-0.7-0.7-1.1-1.7-1.1-3s0.4-2.2,1.1-3c0.7-0.8,1.6-1.1,2.8-1.1
	c1.1,0,2.1,0.4,2.8,1.1c0.7,0.7,1.1,1.7,1.1,3S938.5,1460.5,937.8,1461.3z M1025,1446c-0.6,0-1,0.2-1.4,0.5
	c-0.4,0.4-0.6,0.8-0.6,1.3c0,0.5,0.2,1,0.6,1.3c0.4,0.4,0.8,0.5,1.4,0.5c0.6,0,1-0.2,1.4-0.5c0.4-0.4,0.5-0.8,0.5-1.4
	c0-0.5-0.2-0.9-0.6-1.3C1026.1,1446.1,1025.6,1446,1025,1446z M982.7,1451.6c-1,0-2,0.2-2.8,0.6c-0.8,0.4-1.5,0.9-2.1,1.6
	c-0.4-0.7-1-1.3-1.8-1.6c-0.8-0.4-1.6-0.5-2.6-0.5c-0.9,0-1.7,0.2-2.4,0.5c-0.7,0.3-1.3,0.8-1.8,1.3v-1.7h-2.9v13.1h3.1v-6.6
	c0-1.3,0.3-2.2,0.9-2.9c0.6-0.7,1.4-1,2.5-1c0.9,0,1.7,0.3,2.2,0.9c0.5,0.6,0.8,1.4,0.8,2.6v7.1h3.1v-6.6c0-1.3,0.3-2.2,0.9-2.9
	c0.6-0.7,1.4-1,2.5-1c0.9,0,1.7,0.3,2.2,0.9s0.8,1.4,0.8,2.6v7.1h3.1v-7.5c0-1.9-0.5-3.3-1.4-4.3
	C985.6,1452.1,984.3,1451.6,982.7,1451.6z M1014.2,1451.6c-0.9,0-1.7,0.1-2.5,0.4c-0.7,0.3-1.4,0.7-1.9,1.2v-6.6h-3.1v18.1h3.1v-6.6
	c0-1.3,0.3-2.2,1-2.9c0.7-0.7,1.5-1,2.7-1c1,0,1.8,0.3,2.3,0.9c0.5,0.6,0.8,1.4,0.8,2.6v7.1h3.1v-7.5c0-1.9-0.5-3.3-1.5-4.3
	C1017.1,1452.1,1015.8,1451.6,1014.2,1451.6z M1023.5,1464.8h3.1v-13.1h-3.1V1464.8z M996.9,1451.6c-1.1,0-2.1,0.1-3.1,0.4
	c-1,0.3-1.8,0.7-2.5,1.2l1.2,2.2c0.5-0.4,1.1-0.7,1.8-1s1.4-0.3,2.2-0.3c1.1,0,1.9,0.2,2.4,0.7c0.5,0.5,0.8,1.2,0.8,2.1v0.2h-3.4
	c-1.9,0-3.2,0.4-4.1,1.1c-0.9,0.7-1.3,1.7-1.3,2.8c0,0.8,0.2,1.4,0.6,2s1,1.1,1.7,1.4c0.7,0.3,1.6,0.5,2.6,0.5s1.8-0.2,2.5-0.5
	c0.7-0.3,1.2-0.7,1.6-1.3v1.6h2.9v-7.6c0-1.9-0.5-3.2-1.5-4.2C1000.3,1452.1,998.8,1451.6,996.9,1451.6z M999.8,1460.8
	c-0.2,0.7-0.7,1.2-1.3,1.5c-0.6,0.4-1.3,0.5-2,0.5c-0.8,0-1.4-0.2-1.8-0.5c-0.4-0.3-0.7-0.8-0.7-1.3c0-1.2,0.9-1.7,2.6-1.7h3.2
	V1460.8z M1036.5,1454.2c0.7,0,1.3,0.2,1.8,0.5c0.6,0.3,1,0.8,1.4,1.4l2.3-1.4c-0.5-1-1.2-1.7-2.2-2.2s-2.1-0.8-3.4-0.8
	c-1.4,0-2.6,0.3-3.7,0.9c-1.1,0.6-1.9,1.4-2.5,2.4c-0.6,1-0.9,2.2-0.9,3.4s0.3,2.4,0.9,3.5c0.6,1,1.4,1.8,2.5,2.4s2.3,0.9,3.6,0.9
	c1.3,0,2.4-0.3,3.4-0.8s1.7-1.3,2.2-2.3l-2.3-1.4c-0.4,0.6-0.8,1.1-1.4,1.4c-0.6,0.3-1.2,0.5-1.8,0.5c-1.2,0-2.1-0.4-2.8-1.1
	s-1.1-1.7-1.1-3s0.4-2.2,1.1-3C1034.4,1454.6,1035.4,1454.2,1036.5,1454.2z M1054,1452.5c-1.1-0.6-2.3-0.9-3.6-0.9
	c-1.3,0-2.5,0.3-3.6,0.9c-1.1,0.6-1.9,1.4-2.5,2.4c-0.6,1-0.9,2.2-0.9,3.4s0.3,2.4,0.9,3.5c0.6,1,1.4,1.8,2.5,2.4
	c1.1,0.6,2.2,0.9,3.6,0.9c1.3,0,2.5-0.3,3.6-0.9c1.1-0.6,1.9-1.4,2.5-2.4c0.6-1,0.9-2.2,0.9-3.5s-0.3-2.4-0.9-3.4
	C1055.9,1453.9,1055.1,1453.1,1054,1452.5z M1053.2,1461.3c-0.7,0.8-1.7,1.1-2.8,1.1s-2-0.4-2.8-1.1c-0.7-0.7-1.1-1.7-1.1-3
	s0.4-2.2,1.1-3c0.7-0.8,1.7-1.1,2.8-1.1s2.1,0.4,2.8,1.1c0.7,0.7,1.1,1.7,1.1,3S1053.9,1460.5,1053.2,1461.3z M1080.2,1442.7
	c-1.3,0-2.6,0.4-3.7,1.2c-1.2,0.9-2,2.2-2.3,3.7c-0.1,0.6-0.2,1.3-0.2,1.9c0,1,0,2,0,3v0.4h-4.3v5h4.2v12.6h5.2v-12.6h4.3
	c0.2-1.7,0.4-3.3,0.7-5h-4.9c0,0,0-2.5,0-3.6c0.1-1.4,1-1.9,2.1-1.9c0.9,0,1.7,0,2.6,0h0.4v-4.5c-0.5,0-0.9-0.1-1.4-0.1
	C1082,1442.8,1081.1,1442.7,1080.2,1442.7z M1118.8,1465.1h3.1v-13.1h-3.1V1465.1z M1120.3,1446.3c-0.6,0-1,0.2-1.4,0.5
	s-0.6,0.8-0.6,1.3c0,0.5,0.2,1,0.6,1.3c0.4,0.4,0.8,0.5,1.4,0.5c0.6,0,1-0.2,1.4-0.5c0.4-0.4,0.5-0.8,0.5-1.4c0-0.5-0.2-0.9-0.6-1.3
	C1121.4,1446.4,1120.9,1446.3,1120.3,1446.3z M1110.2,1449.2c-1.7-0.9-3.7-1.4-5.9-1.4c-2.3,0-4.3,0.5-6.1,1.4c-1.8,1-3.1,2.3-4.1,4
	c-1,1.7-1.5,3.6-1.5,5.7c0,2.2,0.5,4.1,1.5,5.8c1,1.7,2.3,3,4.1,4c1.8,1,3.8,1.4,6,1.4c0.9,0,1.9-0.1,2.9-0.3s1.8-0.5,2.5-0.9
	l-0.7-2c-0.7,0.4-1.5,0.6-2.3,0.8c-0.8,0.2-1.6,0.3-2.4,0.3c-1.8,0-3.5-0.4-4.9-1.2c-1.4-0.8-2.5-1.9-3.3-3.2
	c-0.8-1.4-1.2-3-1.2-4.8c0-1.8,0.4-3.3,1.2-4.7c0.8-1.4,1.9-2.5,3.3-3.2c1.4-0.8,3.1-1.2,4.9-1.2c1.8,0,3.5,0.4,4.9,1.1
	c1.4,0.7,2.5,1.8,3.3,3.1c0.8,1.3,1.2,2.8,1.2,4.6c0,1.4-0.2,2.5-0.5,3.3c-0.3,0.8-0.9,1.1-1.5,1.1c-0.4,0-0.7-0.1-0.9-0.4
	c-0.2-0.3-0.4-0.7-0.4-1.3v-8.3h-2.7v1.6c-0.5-0.6-1.1-1-1.7-1.3c-0.7-0.3-1.5-0.4-2.3-0.4c-1.1,0-2.1,0.3-3,0.8
	c-0.9,0.5-1.6,1.3-2.1,2.2c-0.5,0.9-0.8,2-0.8,3.2c0,1.2,0.3,2.3,0.8,3.2s1.2,1.7,2.1,2.2c0.9,0.5,1.9,0.8,3,0.8
	c2,0,3.4-0.7,4.4-2.1c0.2,0.7,0.6,1.2,1.1,1.6c0.5,0.4,1.2,0.5,2,0.5c1.5,0,2.6-0.6,3.4-1.8c0.8-1.2,1.2-2.9,1.2-5
	c0-2.1-0.5-3.9-1.5-5.5C1113.3,1451.4,1112,1450.1,1110.2,1449.2z M1106.7,1461.9c-0.7,0.7-1.5,1-2.6,1c-1.1,0-1.9-0.4-2.6-1.1
	c-0.7-0.7-1-1.6-1-2.8c0-1.2,0.3-2.1,1-2.8c0.7-0.7,1.5-1,2.6-1c1.1,0,1.9,0.3,2.6,1c0.7,0.7,1,1.6,1,2.8
	C1107.7,1460.2,1107.3,1461.2,1106.7,1461.9z M1133.3,1451.9c-1,0-1.8,0.2-2.6,0.5s-1.4,0.8-1.9,1.4v-1.7h-2.9v13.1h3.1v-6.6
	c0-1.3,0.3-2.2,1-2.9c0.7-0.7,1.5-1,2.7-1c1,0,1.8,0.3,2.3,0.9s0.8,1.4,0.8,2.6v7.1h3.1v-7.5c0-1.9-0.5-3.3-1.5-4.3
	C1136.2,1452.4,1134.9,1451.9,1133.3,1451.9z M1147.9,1449.3c0.6,0,1.2,0.2,1.7,0.5l0.9-2.3c-0.7-0.5-1.6-0.7-2.8-0.7
	c-1.5,0-2.6,0.4-3.4,1.2s-1.2,1.9-1.2,3.3v0.8h-2.2v2.4h2.2v10.5h3.1v-10.5h3.5v-2.4h-3.6v-0.8
	C1146,1450,1146.6,1449.3,1147.9,1449.3z M1236.4,1451.9c-0.9,0-1.7,0.1-2.5,0.4c-0.7,0.3-1.4,0.7-1.9,1.2v-6.6h-3.1v18.1h3.1v-6.6
	c0-1.3,0.3-2.2,1-2.9c0.7-0.7,1.5-1,2.7-1c1,0,1.8,0.3,2.3,0.9c0.5,0.6,0.8,1.4,0.8,2.6v7.1h3.1v-7.5c0-1.9-0.5-3.3-1.5-4.3
	C1239.4,1452.4,1238.1,1451.9,1236.4,1451.9z M1245.8,1465.1h3.1v-13.1h-3.1V1465.1z M1219.2,1451.9c-1.1,0-2.1,0.1-3.1,0.4
	c-1,0.3-1.8,0.7-2.5,1.2l1.2,2.2c0.5-0.4,1.1-0.7,1.8-1s1.4-0.3,2.2-0.3c1.1,0,1.9,0.2,2.4,0.7c0.5,0.5,0.8,1.2,0.8,2.1v0.2h-3.4
	c-1.9,0-3.2,0.4-4.1,1.1c-0.9,0.7-1.3,1.7-1.3,2.8c0,0.8,0.2,1.4,0.6,2s1,1.1,1.7,1.4c0.7,0.3,1.6,0.5,2.6,0.5s1.8-0.2,2.5-0.5
	c0.7-0.3,1.2-0.7,1.6-1.3v1.6h2.9v-7.6c0-1.9-0.5-3.2-1.5-4.2C1222.6,1452.4,1221.1,1451.9,1219.2,1451.9z M1222,1461.1
	c-0.2,0.7-0.7,1.2-1.3,1.5c-0.6,0.4-1.3,0.5-2,0.5c-0.8,0-1.4-0.2-1.8-0.5c-0.4-0.3-0.7-0.8-0.7-1.3c0-1.2,0.9-1.7,2.6-1.7h3.2
	V1461.1z M1247.3,1446.3c-0.6,0-1,0.2-1.4,0.5c-0.4,0.4-0.6,0.8-0.6,1.3c0,0.5,0.2,1,0.6,1.3c0.4,0.4,0.8,0.5,1.4,0.5
	c0.6,0,1-0.2,1.4-0.5c0.4-0.4,0.5-0.8,0.5-1.4c0-0.5-0.2-0.9-0.6-1.3C1248.3,1446.4,1247.8,1446.3,1247.3,1446.3z M1160.9,1452.8
	c-1.1-0.6-2.3-0.9-3.6-0.9c-1.3,0-2.5,0.3-3.6,0.9c-1.1,0.6-1.9,1.4-2.5,2.4c-0.6,1-0.9,2.2-0.9,3.4s0.3,2.4,0.9,3.5
	c0.6,1,1.4,1.8,2.5,2.4c1.1,0.6,2.2,0.9,3.6,0.9c1.3,0,2.5-0.3,3.6-0.9s1.9-1.4,2.5-2.4c0.6-1,0.9-2.2,0.9-3.5s-0.3-2.4-0.9-3.4
	C1162.8,1454.2,1161.9,1453.4,1160.9,1452.8z M1160.1,1461.6c-0.7,0.8-1.7,1.1-2.8,1.1c-1.1,0-2-0.4-2.8-1.1c-0.7-0.7-1.1-1.7-1.1-3
	s0.4-2.2,1.1-3c0.7-0.8,1.6-1.1,2.8-1.1c1.1,0,2.1,0.4,2.8,1.1c0.7,0.7,1.1,1.7,1.1,3S1160.8,1460.8,1160.1,1461.6z M1173.1,1454.5
	c0.7,0,1.3,0.2,1.8,0.5c0.6,0.3,1,0.8,1.4,1.4l2.3-1.4c-0.5-1-1.2-1.7-2.2-2.2c-1-0.5-2.1-0.8-3.4-0.8c-1.4,0-2.6,0.3-3.7,0.9
	s-1.9,1.4-2.5,2.4c-0.6,1-0.9,2.2-0.9,3.4s0.3,2.4,0.9,3.5c0.6,1,1.4,1.8,2.5,2.4c1.1,0.6,2.3,0.9,3.6,0.9c1.3,0,2.4-0.3,3.4-0.8
	c1-0.5,1.7-1.3,2.2-2.3l-2.3-1.4c-0.4,0.6-0.8,1.1-1.4,1.4c-0.6,0.3-1.2,0.5-1.8,0.5c-1.2,0-2.1-0.4-2.8-1.1c-0.7-0.7-1.1-1.7-1.1-3
	s0.4-2.2,1.1-3C1171.1,1454.9,1172,1454.5,1173.1,1454.5z M1181.4,1465.1h3.1v-13.1h-3.1V1465.1z M1182.9,1446.3
	c-0.6,0-1,0.2-1.4,0.5s-0.6,0.8-0.6,1.3c0,0.5,0.2,1,0.6,1.3c0.4,0.4,0.8,0.5,1.4,0.5c0.6,0,1-0.2,1.4-0.5c0.4-0.4,0.5-0.8,0.5-1.4
	c0-0.5-0.2-0.9-0.6-1.3S1183.5,1446.3,1182.9,1446.3z M1204.9,1451.9c-1,0-2,0.2-2.8,0.6c-0.8,0.4-1.5,0.9-2.1,1.6
	c-0.4-0.7-1-1.3-1.8-1.6c-0.8-0.4-1.6-0.5-2.6-0.5c-0.9,0-1.7,0.2-2.4,0.5c-0.7,0.3-1.3,0.8-1.8,1.3v-1.7h-2.9v13.1h3.1v-6.6
	c0-1.3,0.3-2.2,0.9-2.9c0.6-0.7,1.4-1,2.5-1c0.9,0,1.7,0.3,2.2,0.9c0.5,0.6,0.8,1.4,0.8,2.6v7.1h3.1v-6.6c0-1.3,0.3-2.2,0.9-2.9
	c0.6-0.7,1.4-1,2.5-1c0.9,0,1.7,0.3,2.2,0.9s0.8,1.4,0.8,2.6v7.1h3.1v-7.5c0-1.9-0.5-3.3-1.4-4.3
	C1207.9,1452.4,1206.6,1451.9,1204.9,1451.9z M1296.5,1451.8c-0.1-1.8-0.3-3.8-1.5-5.2c-1.1-1.1-2.5-1.6-4-1.6
	c-1.8-0.2-3.7-0.3-5.6-0.4c-3.8-0.1-7.5-0.1-11.3,0c-1.9,0-3.9,0.1-5.8,0.2c-2.4,0.2-4.8,0.5-5.9,2.9c-1,2.1-0.9,4.8-0.9,7.1
	c0,2,0,4.1,0.1,6.1c0.1,2.7,0.3,6.1,3.1,7.3c1.6,0.5,3.3,0.8,5,0.9s3.5,0.1,5.2,0.1c3.6,0.1,7.3-0.1,10.9-0.1
	c2.5,0.1,5.1-0.2,7.5-0.9c2.1-0.7,2.6-3,2.9-4.9c0.2-2,0.3-3.9,0.2-5.9c0.2-1.5,0.2-3,0.2-4.4
	C1296.6,1452.6,1296.6,1452.2,1296.5,1451.8z M1319.4,1452.6c-1,0-1.8,0.2-2.6,0.5c-0.8,0.3-1.4,0.8-1.9,1.4v-1.7h-2.9v13.1h3.1
	v-6.6c0-1.3,0.3-2.2,1-2.9c0.7-0.7,1.5-1,2.7-1c1,0,1.8,0.3,2.3,0.9c0.5,0.6,0.8,1.4,0.8,2.6v7.1h3.1v-7.5c0-1.9-0.5-3.3-1.5-4.3
	C1322.3,1453.1,1321,1452.6,1319.4,1452.6z M1304.9,1465.8h3.1v-13.1h-3.1V1465.8z M1306.4,1447c-0.6,0-1,0.2-1.4,0.5
	c-0.4,0.4-0.6,0.8-0.6,1.3c0,0.5,0.2,1,0.6,1.3c0.4,0.3,0.8,0.5,1.4,0.5c0.6,0,1-0.2,1.4-0.6c0.4-0.4,0.5-0.8,0.5-1.4
	c0-0.5-0.2-0.9-0.6-1.3C1307.4,1447.1,1307,1447,1306.4,1447z M1334,1450c0.6,0,1.2,0.2,1.7,0.5l0.9-2.3c-0.7-0.5-1.6-0.7-2.8-0.7
	c-1.5,0-2.6,0.4-3.4,1.2s-1.2,1.9-1.2,3.3v0.8h-2.2v2.4h2.2v10.5h3.1v-10.5h3.5v-2.4h-3.6v-0.8C1332.1,1450.7,1332.7,1450,1334,1450
	z M1347,1453.5c-1.1-0.6-2.3-0.9-3.6-0.9c-1.3,0-2.5,0.3-3.6,0.9c-1.1,0.6-1.9,1.4-2.5,2.4c-0.6,1-0.9,2.2-0.9,3.4s0.3,2.4,0.9,3.5
	c0.6,1,1.4,1.8,2.5,2.4c1.1,0.6,2.2,0.9,3.6,0.9c1.3,0,2.5-0.3,3.6-0.9c1.1-0.6,1.9-1.4,2.5-2.4c0.6-1,0.9-2.2,0.9-3.5
	s-0.3-2.4-0.9-3.4C1348.8,1454.8,1348,1454.1,1347,1453.5z M1346.2,1462.3c-0.7,0.8-1.7,1.1-2.8,1.1c-1.1,0-2-0.4-2.8-1.1
	c-0.7-0.7-1.1-1.7-1.1-3c0-1.2,0.4-2.2,1.1-3s1.7-1.1,2.8-1.1c1.1,0,2.1,0.4,2.8,1.1c0.7,0.8,1.1,1.7,1.1,3
	C1347.3,1460.5,1346.9,1461.5,1346.2,1462.3z M1422.5,1452.6c-0.9,0-1.7,0.1-2.5,0.4s-1.4,0.7-1.9,1.2v-6.6h-3.1v18.1h3.1v-6.6
	c0-1.3,0.3-2.2,1-2.9c0.7-0.7,1.5-1,2.7-1c1,0,1.8,0.3,2.3,0.9s0.8,1.4,0.8,2.6v7.1h3.1v-7.5c0-1.9-0.5-3.3-1.5-4.3
	C1425.5,1453.1,1424.2,1452.6,1422.5,1452.6z M1405.3,1452.6c-1.1,0-2.1,0.1-3.1,0.4s-1.8,0.7-2.5,1.2l1.2,2.2
	c0.5-0.4,1.1-0.7,1.8-1s1.4-0.3,2.2-0.3c1.1,0,1.9,0.2,2.4,0.7c0.5,0.5,0.8,1.2,0.8,2.1v0.2h-3.4c-1.9,0-3.2,0.4-4.1,1.1
	c-0.9,0.7-1.3,1.7-1.3,2.8c0,0.8,0.2,1.4,0.6,2c0.4,0.6,1,1.1,1.7,1.4c0.7,0.3,1.6,0.5,2.6,0.5c1,0,1.8-0.2,2.5-0.5
	c0.7-0.3,1.2-0.7,1.6-1.3v1.6h2.9v-7.6c0-1.9-0.5-3.2-1.5-4.2C1408.6,1453.1,1407.2,1452.6,1405.3,1452.6z M1408.1,1461.7
	c-0.2,0.7-0.7,1.2-1.3,1.5c-0.6,0.4-1.3,0.5-2,0.5c-0.8,0-1.4-0.2-1.8-0.5s-0.7-0.8-0.7-1.3c0-1.2,0.9-1.7,2.6-1.7h3.2V1461.7z
	 M1433.4,1447c-0.6,0-1,0.2-1.4,0.5c-0.4,0.4-0.6,0.8-0.6,1.3c0,0.5,0.2,1,0.6,1.3s0.8,0.5,1.4,0.5c0.6,0,1-0.2,1.4-0.6
	c0.4-0.4,0.5-0.8,0.5-1.4c0-0.5-0.2-0.9-0.6-1.3C1434.4,1447.1,1433.9,1447,1433.4,1447z M1431.8,1465.8h3.1v-13.1h-3.1V1465.8z
	 M1367.5,1465.8h3.1v-13.1h-3.1V1465.8z M1359.2,1455.2c0.7,0,1.3,0.2,1.8,0.5s1,0.8,1.4,1.4l2.3-1.4c-0.5-1-1.2-1.7-2.2-2.2
	c-1-0.5-2.1-0.8-3.4-0.8c-1.4,0-2.6,0.3-3.7,0.9c-1.1,0.6-1.9,1.4-2.5,2.4s-0.9,2.2-0.9,3.4s0.3,2.4,0.9,3.5s1.4,1.8,2.5,2.4
	c1.1,0.6,2.3,0.9,3.6,0.9c1.3,0,2.4-0.3,3.4-0.8s1.7-1.3,2.2-2.3l-2.3-1.4c-0.4,0.6-0.8,1.1-1.4,1.4c-0.6,0.3-1.2,0.5-1.8,0.5
	c-1.2,0-2.1-0.4-2.8-1.1c-0.7-0.7-1.1-1.7-1.1-3s0.4-2.2,1.1-3C1357.1,1455.6,1358.1,1455.2,1359.2,1455.2z M1369,1447
	c-0.6,0-1,0.2-1.4,0.5c-0.4,0.4-0.6,0.8-0.6,1.3c0,0.5,0.2,1,0.6,1.3s0.8,0.5,1.4,0.5c0.6,0,1-0.2,1.4-0.6c0.4-0.4,0.5-0.8,0.5-1.4
	c0-0.5-0.2-0.9-0.6-1.3C1370,1447.1,1369.6,1447,1369,1447z M1391,1452.6c-1,0-2,0.2-2.8,0.6c-0.8,0.4-1.5,0.9-2.1,1.6
	c-0.4-0.7-1-1.3-1.8-1.6c-0.8-0.4-1.6-0.6-2.6-0.6c-0.9,0-1.7,0.2-2.4,0.5c-0.7,0.3-1.3,0.8-1.8,1.3v-1.7h-2.9v13.1h3.1v-6.6
	c0-1.3,0.3-2.2,0.9-2.9c0.6-0.7,1.4-1,2.5-1c0.9,0,1.7,0.3,2.2,0.9s0.8,1.4,0.8,2.6v7.1h3.1v-6.6c0-1.3,0.3-2.2,0.9-2.9
	c0.6-0.7,1.4-1,2.5-1c0.9,0,1.7,0.3,2.2,0.9c0.5,0.6,0.8,1.4,0.8,2.6v7.1h3.1v-7.5c0-1.9-0.5-3.3-1.4-4.3
	C1394,1453.1,1392.6,1452.6,1391,1452.6z M1470.4,1448.7l-5.7,13.2l-5.7-13.2h-3.2h-0.3h-14.3v2.7h5.7v14.4h3.2v-14.4h5.7v-2.1
	l7.2,16.5h3.1l7.5-17.1H1470.4z"/>
</svg>
