<?xml version="1.0" encoding="utf-8"?>
<!-- Generator: Adobe Illustrator 24.0.1, SVG Export Plug-In . SVG Version: 6.00 Build 0)  -->
<svg version="1.1" id="Layer_1" xmlns="http://www.w3.org/2000/svg" xmlns:xlink="http://www.w3.org/1999/xlink" x="0px" y="0px"
	 viewBox="0 0 1908 63" style="enable-background:new 0 0 1908 63;" xml:space="preserve">
<style type="text/css">
	.st0{fill:#FFFFFF;}
	.st1{fill:#2B959F;}
</style>
<path class="st0" d="M47.2,7.3H9.4c-4.8,0-8.7,3.9-8.7,8.7v37.9c0,4.8,3.9,8.7,8.7,8.7h37.9c4.8,0,8.7-3.9,8.7-8.7V16
	C55.9,11.2,52,7.3,47.2,7.3z M40,14.9c0-0.9,0.7-1.5,1.5-1.5h6.7c0.9,0,1.5,0.7,1.5,1.5v6.7c0,0.9-0.7,1.5-1.5,1.5h-6.7
	c-0.9,0-1.5-0.7-1.5-1.5V14.9z M18.3,30.8c2.2-5.7,8.5-8.3,14.1-6.1c5.7,2.2,8.3,8.5,6.1,14.1c-2.2,5.7-8.5,8.3-14.1,6.1
	c-4.1-1.7-7-5.7-7-10.2C17.4,33.4,17.6,32.1,18.3,30.8z M50.1,53.9c0,1.5-1.3,2.8-2.8,2.8H9.4c-1.5,0-2.8-1.3-2.8-2.8V31H12
	c-0.2,1.3-0.4,2.6-0.4,3.9c-0.4,9.1,7,17,16.1,17.4c9.1,0.4,17-7,17.4-16.1c0-0.4,0-0.9,0-1.3c0-1.3-0.2-2.6-0.4-3.9h5.4V53.9z
	 M135.1,10.6c-1.3,0-2.2,0.4-3,1.1c-0.9,0.9-1.3,1.7-1.3,2.8s0.4,2.2,1.3,2.8c0.9,0.9,1.7,1.1,3,1.1c1.3,0,2.2-0.4,3-1.1
	c0.9-0.9,1.1-1.7,1.1-3c0-1.1-0.4-2-1.3-2.8C137.3,11,136.2,10.6,135.1,10.6z M131.6,51.7h6.7V23.2h-6.7V51.7z M163.2,23
	c-2.2,0-3.9,0.4-5.7,1.1c-1.7,0.7-3,1.7-4.1,3v-3.7h-6.3v28.5h6.7V37.6c0-2.8,0.7-4.8,2.2-6.3c1.5-1.5,3.3-2.2,5.9-2.2
	c2.2,0,3.9,0.7,5,2c1.1,1.3,1.7,3,1.7,5.7v15.4h6.7V35.8c0-4.1-1.1-7.2-3.3-9.4C169.7,24.1,166.7,23,163.2,23z M113.1,16.9
	c-3.7-2-8-3-12.8-3c-5,0-9.4,1.1-13.3,3c-3.9,2.2-6.7,5-8.9,8.7c-2.2,3.7-3.3,7.8-3.3,12.4c0,4.8,1.1,8.9,3.3,12.6
	c2.2,3.7,5,6.5,8.9,8.7c3.9,2.2,8.3,3,13.1,3c2,0,4.1-0.2,6.3-0.7c2.2-0.4,3.9-1.1,5.4-2l-1.5-4.4c-1.5,0.9-3.3,1.3-5,1.7
	c-1.7,0.4-3.5,0.7-5.2,0.7c-3.9,0-7.6-0.9-10.7-2.6c-3-1.7-5.4-4.1-7.2-7c-1.7-3-2.6-6.5-2.6-10.4s0.9-7.2,2.6-10.2
	c1.7-3,4.1-5.4,7.2-7c3-1.7,6.7-2.6,10.7-2.6c3.9,0,7.6,0.9,10.7,2.4c3,1.5,5.4,3.9,7.2,6.7c1.7,2.8,2.6,6.1,2.6,10
	c0,3-0.4,5.4-1.1,7.2c-0.9,1.7-2,2.4-3.3,2.4c-0.9,0-1.5-0.2-2-0.9c-0.4-0.7-0.9-1.5-0.9-2.8V24.9h-5.9v3.5
	c-1.1-1.3-2.4-2.2-3.7-2.8c-1.3-0.7-3.3-0.9-5-0.9c-2.4,0-4.6,0.7-6.5,1.7c-2,1.1-3.5,2.8-4.6,4.8s-1.7,4.4-1.7,7c0,2.6,0.7,5,1.7,7
	c1.1,2,2.6,3.7,4.6,4.8c2,1.1,4.1,1.7,6.5,1.7c4.4,0,7.4-1.5,9.6-4.6c0.4,1.5,1.3,2.6,2.4,3.5c1.1,0.9,2.6,1.1,4.3,1.1
	c3.3,0,5.7-1.3,7.4-3.9c1.7-2.6,2.6-6.3,2.6-10.9s-1.1-8.5-3.3-12C119.7,21.5,116.8,18.8,113.1,16.9z M105.3,44.5
	c-1.5,1.5-3.3,2.2-5.7,2.2c-2.4,0-4.1-0.9-5.7-2.4c-1.5-1.5-2.2-3.5-2.2-6.1c0-2.6,0.7-4.6,2.2-6.1c1.5-1.5,3.3-2.2,5.7-2.2
	c2.4,0,4.1,0.7,5.7,2.2c1.5,1.5,2.2,3.5,2.2,6.1C107.5,41,106.8,43,105.3,44.5z M194.9,17.1c1.3,0,2.6,0.4,3.7,1.1l2-5
	c-1.5-1.1-3.5-1.5-6.1-1.5c-3.3,0-5.7,0.9-7.4,2.6c-1.7,1.7-2.6,4.1-2.6,7.2v1.7h-4.8v5.2h4.8v22.8h6.7V28.4h7.6v-5.2H191v-1.7
	C190.8,18.6,192.1,17.1,194.9,17.1z M271.3,10.6c-1.3,0-2.2,0.4-3,1.1c-0.9,0.9-1.3,1.7-1.3,2.8s0.4,2.2,1.3,2.8
	c0.9,0.9,1.7,1.1,3,1.1c1.3,0,2.2-0.4,3-1.1c0.9-0.9,1.1-1.7,1.1-3c0-1.1-0.4-2-1.3-2.8C273.5,11,272.4,10.6,271.3,10.6z
	 M223.2,24.7c-2.4-1.3-5-2-7.8-2s-5.4,0.7-7.8,2c-2.4,1.3-4.1,3-5.4,5.2c-1.3,2.2-2,4.8-2,7.4c0,2.6,0.7,5.2,2,7.6
	c1.3,2.2,3,3.9,5.4,5.2c2.4,1.3,4.8,2,7.8,2c2.8,0,5.4-0.7,7.8-2c2.4-1.3,4.1-3,5.4-5.2c1.3-2.2,2-4.8,2-7.6c0-2.8-0.7-5.2-2-7.4
	C227.3,27.8,225.6,26,223.2,24.7z M221.5,43.9c-1.5,1.7-3.7,2.4-6.1,2.4c-2.4,0-4.3-0.9-6.1-2.4c-1.5-1.5-2.4-3.7-2.4-6.5
	c0-2.8,0.9-4.8,2.4-6.5c1.5-1.7,3.5-2.4,6.1-2.4c2.4,0,4.6,0.9,6.1,2.4c1.5,1.5,2.4,3.7,2.4,6.5C223.9,40.2,223,42.3,221.5,43.9z
	 M407.9,51.7h6.7V23.2h-6.7V51.7z M411.2,10.6c-1.3,0-2.2,0.4-3,1.1c-0.9,0.7-1.3,1.7-1.3,2.8s0.4,2.2,1.3,2.8
	c0.9,0.9,1.7,1.1,3,1.1c1.3,0,2.2-0.4,3-1.1c0.9-0.9,1.1-1.7,1.1-3c0-1.1-0.4-2-1.3-2.8C413.1,10.6,412.5,10.6,411.2,10.6z M350,23
	c-2.4,0-4.6,0.2-6.7,0.9c-2.2,0.7-3.9,1.5-5.4,2.6l2.6,4.8c1.1-0.9,2.4-1.5,3.9-2.2c1.5-0.4,3-0.7,4.8-0.7c2.4,0,4.1,0.4,5.2,1.5
	c1.1,1.1,1.7,2.6,1.7,4.6v0.4h-7.4c-4.1,0-7,0.9-8.9,2.4c-2,1.5-2.8,3.7-2.8,6.1c0,1.7,0.4,3,1.3,4.4c0.9,1.3,2.2,2.4,3.7,3
	c1.5,0.7,3.5,1.1,5.7,1.1c2.2,0,3.9-0.4,5.4-1.1s2.6-1.5,3.5-2.8v3.5h6.3V34.9c0-4.1-1.1-7-3.3-9.1C357.4,23.8,354.2,23,350,23z
	 M356.3,42.8c-0.4,1.5-1.5,2.6-2.8,3.3c-1.3,0.7-2.8,1.1-4.4,1.1c-1.7,0-3-0.4-3.9-1.1c-0.9-0.7-1.5-1.7-1.5-2.8
	c0-2.6,2-3.7,5.7-3.7h7V42.8z M387.7,23c-2,0-3.7,0.2-5.4,0.9c-1.7,0.7-3,1.5-4.1,2.6V12.1h-6.7v39.4h6.7V37.1
	c0-2.8,0.7-4.8,2.2-6.3c1.5-1.5,3.3-2.2,5.9-2.2c2.2,0,3.9,0.7,5,2c1.1,1.3,1.7,3,1.7,5.7v15.4h6.7V35.4c0-4.1-1.1-7.2-3.3-9.4
	C394,24.1,391.1,23,387.7,23z M267.8,51.7h6.7V23.2h-6.7V51.7z M319.1,23c-2.2,0-4.4,0.4-6.1,1.3s-3.3,2-4.6,3.5
	c-0.9-1.5-2.2-2.8-3.9-3.5c-1.7-0.9-3.5-1.1-5.7-1.1c-2,0-3.7,0.4-5.2,1.1c-1.5,0.7-2.8,1.7-3.9,2.8v-3.7h-6.3v28.5h6.7V37.6
	c0-2.8,0.7-4.8,2-6.3c1.3-1.5,3-2.2,5.4-2.2c2,0,3.7,0.7,4.8,2c1.1,1.3,1.7,3,1.7,5.7v15.4h6.7V37.8c0-2.8,0.7-4.8,2-6.3
	c1.3-1.5,3-2.2,5.4-2.2c2,0,3.7,0.7,4.8,2c1.1,1.3,1.7,3,1.7,5.7v15.4h6.7V36c0-4.1-1.1-7.2-3-9.4C325.5,24.1,322.6,23,319.1,23z
	 M250,28.6c1.5,0,2.8,0.4,3.9,1.1c1.3,0.7,2.2,1.7,3,3l5-3c-1.1-2.2-2.6-3.7-4.8-4.8c-2.2-1.1-4.6-1.7-7.4-1.7c-3,0-5.7,0.7-8,2
	c-2.4,1.3-4.1,3-5.4,5.2c-1.3,2.2-2,4.8-2,7.4s0.7,5.2,2,7.6c1.3,2.2,3,3.9,5.4,5.2c2.4,1.3,5,2,7.8,2s5.2-0.7,7.4-1.7
	c2.2-1.1,3.7-2.8,4.8-5l-5-3c-0.9,1.3-1.7,2.4-3,3c-1.3,0.7-2.6,1.1-3.9,1.1c-2.6,0-4.6-0.9-6.1-2.4c-1.5-1.5-2.4-3.7-2.4-6.5
	c0-2.8,0.9-4.8,2.4-6.5C245.4,29.3,247.4,28.6,250,28.6z M425.3,43.2c-1.3,0-2.2,0.4-3,1.3c-0.9,0.9-1.3,2-1.3,3.3
	c0,1.3,0.4,2.4,1.3,3.3c0.9,0.9,2,1.3,3,1.3c1.1,0,2.2-0.4,3-1.3c0.9-0.9,1.3-2,1.3-3.3c0-1.3-0.4-2.4-1.3-3.3
	C427.7,43.6,426.6,43.2,425.3,43.2z M448.6,28.6c1.5,0,2.8,0.4,3.9,1.1c1.3,0.7,2.2,1.7,3,3l5-3c-1.1-2.2-2.6-3.7-4.8-4.8
	c-2.2-1.1-4.6-1.7-7.4-1.7c-3,0-5.7,0.7-8,2c-2.4,1.3-4.1,3-5.4,5.2c-1.3,2.2-2,4.8-2,7.4s0.7,5.2,2,7.6c1.3,2.2,3,3.9,5.4,5.2
	s5,2,7.8,2c2.8,0,5.2-0.7,7.4-1.7c2.2-1.1,3.7-2.8,4.8-5l-5-3c-0.9,1.3-1.7,2.4-3,3c-1.3,0.7-2.6,1.1-3.9,1.1
	c-2.6,0-4.6-0.9-6.1-2.4c-1.5-1.5-2.4-3.7-2.4-6.5c0-2.8,0.9-4.8,2.4-6.5C444,29.3,446.2,28.6,448.6,28.6z M486.6,24.7
	c-2.4-1.3-5-2-7.8-2s-5.4,0.7-7.8,2c-2.4,1.3-4.1,3-5.4,5.2c-1.3,2.2-2,4.8-2,7.4c0,2.6,0.7,5.2,2,7.6c1.3,2.2,3,3.9,5.4,5.2
	c2.4,1.3,4.8,2,7.8,2c2.8,0,5.4-0.7,7.8-2c2.4-1.3,4.1-3,5.4-5.2c1.3-2.2,2-4.8,2-7.6c0-2.8-0.7-5.2-2-7.4
	C490.8,27.8,489,26,486.6,24.7z M484.9,43.9c-1.5,1.7-3.7,2.4-6.1,2.4c-2.4,0-4.4-0.9-6.1-2.4c-1.5-1.5-2.4-3.7-2.4-6.5
	c0-2.8,0.9-4.8,2.4-6.5c1.5-1.7,3.7-2.4,6.1-2.4c2.4,0,4.6,0.9,6.1,2.4c1.5,1.5,2.4,3.7,2.4,6.5C487.3,40.2,486.4,42.3,484.9,43.9z
	 M576.5,12.3c-2.6,1.3-5,2.2-7.6,2.8c-0.2,0-0.4,0-0.7-0.2c-2.6-2.8-6.5-4.1-10.4-3.7c-7,0.9-12,7.2-11.1,14.1
	c0,0.4,0.2,0.9,0.2,1.3c-10.2-0.7-19.6-5.4-26.1-13.3c-1.5,2.6-2,6.1-1.3,9.1c0.7,3,2.6,5.9,5.2,7.6c-2,0-3.9-0.7-5.7-1.5
	c-0.2,2.4,0.4,4.8,1.7,6.7c2,3,4.8,5.2,8.3,5.9h-0.2c-1.7,0.4-3.7,0.7-5.4,0.2c1.7,5,6.3,8.5,11.7,8.7c-2,1.5-3.9,2.8-6.1,4.1
	c-3.9,1.7-8.3,2.2-12.6,1.7l0.2,0.2c6.1,3.9,13.1,5.7,20.2,5.4c2.4,0,4.8-0.4,7.2-0.9c6.7-1.5,12.6-4.8,17.4-9.8
	c2.8-2.8,5.2-6.3,7-10c1.7-3.5,2.8-7.4,3.3-11.3c0.2-2,0.2-3.7,0.2-5.7c0-0.2,0-0.4,0.2-0.4c1.7-1.3,3.3-2.6,4.6-4.4
	c0.7-0.7,1.1-1.3,1.5-2c-2.4,1.1-4.8,1.7-7.2,2C573.7,17.5,575.6,15.1,576.5,12.3z M683.7,19.7c-2.2,0-3.9,0.4-5.7,1.1
	c-1.7,0.7-3,1.7-4.1,3v-3.7h-6.3v28.5h6.7V34.3c0-2.8,0.7-4.8,2.2-6.3c1.5-1.5,3.3-2.2,5.9-2.2c2.2,0,3.9,0.7,5,2
	c1.1,1.3,1.7,3,1.7,5.7v15.4h6.7V32.5c0-4.1-1.1-7.2-3.3-9.4C690.3,20.8,687.4,19.7,683.7,19.7z M655.7,7.5c-1.3,0-2.2,0.4-3,1.1
	c-0.9,0.7-1.3,1.7-1.3,2.8c0,1.1,0.4,2.2,1.3,2.8c0.9,0.9,1.7,1.1,3,1.1s2.2-0.4,3-1.1c0.9-0.9,1.1-1.7,1.1-3c0-1.1-0.4-2-1.3-2.8
	C657.8,7.7,656.8,7.5,655.7,7.5z M652.2,48.4h6.7V19.9h-6.7V48.4z M633.7,13.8c-3.7-2-8-3-12.8-3c-5,0-9.4,1.1-13.3,3
	c-3.9,2.2-6.7,5-8.9,8.7c-2.2,3.7-3.3,7.8-3.3,12.4c0,4.8,1.1,8.9,3.3,12.6c2.2,3.7,5,6.5,8.9,8.7c3.9,2.2,8.3,3,13.1,3
	c2,0,4.1-0.2,6.3-0.7c2.2-0.4,3.9-1.1,5.4-2l-1.5-4.4c-1.5,0.9-3.3,1.3-5,1.7c-1.7,0.4-3.5,0.7-5.2,0.7c-3.9,0-7.6-0.9-10.7-2.6
	c-3-1.7-5.4-4.1-7.2-7c-1.7-3-2.6-6.5-2.6-10.4s0.9-7.2,2.6-10.2c1.7-3,4.1-5.4,7.2-7c3-1.7,6.7-2.6,10.7-2.6
	c3.9,0,7.6,0.9,10.7,2.4c3,1.5,5.4,3.9,7.2,6.7s2.6,6.1,2.6,10c0,3-0.4,5.4-1.1,7.2c-0.7,1.7-2,2.4-3.3,2.4c-0.9,0-1.5-0.2-2-0.9
	c-0.4-0.7-0.9-1.5-0.9-2.8V21.9H628v3.5c-1.1-1.3-2.4-2.2-3.7-2.8c-1.5-0.7-3.3-0.9-5-0.9c-2.4,0-4.6,0.7-6.5,1.7
	c-2,1.1-3.5,2.8-4.6,4.8c-1.1,2-1.7,4.4-1.7,7s0.7,5,1.7,7c1.1,2,2.6,3.7,4.6,4.8c2,1.1,4.1,1.7,6.5,1.7c4.4,0,7.4-1.5,9.6-4.6
	c0.4,1.5,1.3,2.6,2.4,3.5c1.1,0.9,2.6,1.1,4.4,1.1c3.3,0,5.7-1.3,7.4-3.9s2.6-6.3,2.6-10.9s-1.1-8.5-3.3-12
	C640.4,18.6,637.4,15.8,633.7,13.8z M625.9,41.5c-1.5,1.5-3.3,2.2-5.7,2.2s-4.1-0.9-5.7-2.4c-1.5-1.5-2.2-3.5-2.2-6.1
	s0.7-4.6,2.2-6.1c1.5-1.5,3.3-2.2,5.7-2.2s4.1,0.7,5.7,2.2c1.5,1.5,2.2,3.5,2.2,6.1S627.4,39.9,625.9,41.5z M715.5,14.1
	c1.3,0,2.6,0.4,3.7,1.1l2-5c-1.5-1.1-3.5-1.5-6.1-1.5c-3.3,0-5.7,0.9-7.4,2.6c-1.7,1.7-2.6,4.1-2.6,7.2v1.7h-4.8v5.2h4.8v22.8h6.7
	V25.4h7.6v-5.2h-7.8v-1.7C711.4,15.6,712.9,14.1,715.5,14.1z M770.5,25.4c1.5,0,2.8,0.4,3.9,1.1c1.3,0.7,2.2,1.7,3,3l5-3
	c-1.1-2.2-2.6-3.7-4.8-4.8s-4.6-1.7-7.4-1.7c-3,0-5.7,0.7-8,2c-2.4,1.3-4.1,3-5.4,5.2s-2,4.8-2,7.4s0.7,5.2,2,7.6
	c1.3,2.2,3,3.9,5.4,5.2c2.4,1.3,5,2,7.8,2s5.2-0.7,7.4-1.7c2.2-1.1,3.7-2.8,4.8-5l-5-3c-0.9,1.3-1.7,2.4-3,3
	c-1.3,0.7-2.6,1.1-3.9,1.1c-2.6,0-4.6-0.9-6.1-2.4c-1.5-1.5-2.4-3.7-2.4-6.5c0-2.8,0.9-4.8,2.4-6.5C766,26.2,768.1,25.4,770.5,25.4z
	 M788.4,48.4h6.7V19.9h-6.7V48.4z M791.8,7.5c-1.3,0-2.2,0.4-3,1.1c-0.9,0.7-1.3,1.7-1.3,2.8c0,1.1,0.4,2.2,1.3,2.8
	c0.9,0.9,1.7,1.1,3,1.1s2.2-0.4,3-1.1c0.9-0.9,1.1-1.7,1.1-3c0-1.1-0.4-2-1.3-2.8C793.8,7.5,792.9,7.5,791.8,7.5z M743.8,21.7
	c-2.4-1.3-5-2-7.8-2s-5.4,0.7-7.8,2c-2.4,1.3-4.1,3-5.4,5.2c-1.3,2.2-2,4.8-2,7.4c0,2.6,0.7,5.2,2,7.6c1.3,2.2,3,3.9,5.4,5.2
	c2.4,1.3,4.8,2,7.8,2c2.8,0,5.4-0.7,7.8-2c2.4-1.3,4.1-3,5.4-5.2c1.3-2.2,2-4.8,2-7.6s-0.7-5.2-2-7.4
	C747.9,24.7,746.2,23,743.8,21.7z M742,40.8c-1.5,1.7-3.7,2.4-6.1,2.4s-4.4-0.9-6.1-2.4c-1.5-1.5-2.4-3.7-2.4-6.5s0.9-4.8,2.4-6.5
	c1.5-1.7,3.5-2.4,6.1-2.4c2.4,0,4.6,0.9,6.1,2.4c1.5,1.5,2.4,3.7,2.4,6.5S743.5,39.1,742,40.8z M931.7,7.5c-1.3,0-2.2,0.4-3,1.1
	c-0.9,0.9-1.3,1.7-1.3,2.8c0,1.1,0.4,2.2,1.3,2.8c0.9,0.9,1.7,1.1,3,1.1c1.3,0,2.2-0.4,3-1.1c0.9-0.9,1.1-1.7,1.1-3
	c0-1.1-0.4-2-1.3-2.8C934.1,7.7,933,7.5,931.7,7.5z M839.7,19.7c-2.2,0-4.4,0.4-6.1,1.3s-3.3,2-4.6,3.5c-0.9-1.5-2.2-2.8-3.9-3.5
	c-1.7-0.9-3.5-1.1-5.7-1.1c-2,0-3.7,0.4-5.2,1.1c-1.5,0.7-2.8,1.7-3.9,2.8v-3.7H804v28.5h6.7V34.3c0-2.8,0.7-4.8,2-6.3
	c1.3-1.5,3-2.2,5.4-2.2c2,0,3.7,0.7,4.8,2s1.7,3,1.7,5.7v15.4h6.7V34.5c0-2.8,0.7-4.8,2-6.3c1.3-1.5,3-2.2,5.4-2.2
	c2,0,3.7,0.7,4.8,2c1.1,1.3,1.7,3,1.7,5.7v15.4h6.7V32.8c0-4.1-1.1-7.2-3-9.4C846,20.8,843.2,19.7,839.7,19.7z M908.2,19.7
	c-2,0-3.7,0.2-5.4,0.9c-1.5,0.7-3,1.5-4.1,2.6V8.8h-6.7v39.4h6.7V33.9c0-2.8,0.7-4.8,2.2-6.3c1.5-1.5,3.3-2.2,5.9-2.2
	c2.2,0,3.9,0.7,5,2c1.1,1.3,1.7,3,1.7,5.7v15.4h6.7V32.1c0-4.1-1.1-7.2-3.3-9.4C914.5,20.8,911.7,19.7,908.2,19.7z M928.5,48.4h6.7
	V19.9h-6.7V48.4z M870.6,19.7c-2.4,0-4.6,0.2-6.7,0.9c-2.2,0.7-3.9,1.5-5.4,2.6L861,28c1.1-0.9,2.4-1.5,3.9-2.2
	c1.5-0.7,3-0.7,4.8-0.7c2.4,0,4.1,0.4,5.2,1.5c1.1,1.1,1.7,2.6,1.7,4.6v0.4h-7.4c-4.1,0-7,0.9-8.9,2.4c-2,1.5-2.8,3.7-2.8,6.1
	c0,1.7,0.4,3,1.3,4.4c0.9,1.3,2.2,2.4,3.7,3c1.5,0.7,3.5,1.1,5.7,1.1c2.2,0,3.9-0.4,5.4-1.1c1.5-0.7,2.6-1.5,3.5-2.8v3.5h6.3V31.7
	c0-4.1-1.1-7-3.3-9.1C878,20.8,874.7,19.7,870.6,19.7z M876.9,39.7c-0.4,1.5-1.5,2.6-2.8,3.3c-1.3,0.9-2.8,1.1-4.4,1.1
	c-1.7,0-3-0.4-3.9-1.1c-0.9-0.7-1.5-1.7-1.5-2.8c0-2.6,2-3.7,5.7-3.7h7V39.7z M956.7,25.4c1.5,0,2.8,0.4,3.9,1.1
	c1.3,0.7,2.2,1.7,3,3l5-3c-1.1-2.2-2.6-3.7-4.8-4.8c-2.2-1.1-4.6-1.7-7.4-1.7c-3,0-5.7,0.7-8,2c-2.4,1.3-4.1,3-5.4,5.2s-2,4.8-2,7.4
	s0.7,5.2,2,7.6c1.3,2.2,3,3.9,5.4,5.2c2.4,1.3,5,2,7.8,2s5.2-0.7,7.4-1.7c2.2-1.1,3.7-2.8,4.8-5l-5-3c-0.9,1.3-1.7,2.4-3,3
	c-1.3,0.7-2.6,1.1-3.9,1.1c-2.6,0-4.6-0.9-6.1-2.4c-1.5-1.5-2.4-3.7-2.4-6.5c0-2.8,0.9-4.8,2.4-6.5
	C952.2,26.2,954.3,25.4,956.7,25.4z M994.8,21.7c-2.4-1.3-5-2-7.8-2c-2.8,0-5.4,0.7-7.8,2s-4.1,3-5.4,5.2c-1.3,2.2-2,4.8-2,7.4
	c0,2.6,0.7,5.2,2,7.6c1.3,2.2,3,3.9,5.4,5.2c2.4,1.3,4.8,2,7.8,2c2.8,0,5.4-0.7,7.8-2c2.4-1.3,4.1-3,5.4-5.2c1.3-2.2,2-4.8,2-7.6
	s-0.7-5.2-2-7.4C998.9,24.7,997.2,23,994.8,21.7z M993.1,40.8c-1.5,1.7-3.7,2.4-6.1,2.4c-2.4,0-4.4-0.9-6.1-2.4
	c-1.5-1.5-2.4-3.7-2.4-6.5s0.9-4.8,2.4-6.5c1.5-1.7,3.7-2.4,6.1-2.4c2.4,0,4.6,0.9,6.1,2.4c1.5,1.5,2.4,3.7,2.4,6.5
	S994.6,39.1,993.1,40.8z M1051.8,0.4c-2.8,0-5.7,0.9-8.1,2.6c-2.6,2-4.3,4.8-5,8c-0.2,1.3-0.4,2.8-0.4,4.1c0,2.2,0,4.4,0,6.5v0.9
	h-9.4v10.9h9.1v27.4h11.3V33.4h9.4c0.4-3.7,0.9-7.2,1.5-10.9h-10.7c0,0,0-5.4,0-7.8c0.2-3,2.2-4.1,4.6-4.1c2,0,3.7,0,5.7,0h0.9V0.8
	c-1.1,0-1.9-0.2-3-0.2C1055.7,0.6,1053.8,0.4,1051.8,0.4z M1135.8,49.1h6.8V20.6h-6.8V49.1z M1139,8.2c-1.3,0-2.2,0.4-3.1,1.1
	c-0.9,0.7-1.3,1.7-1.3,2.8s0.4,2.2,1.3,2.8c0.9,0.9,1.7,1.1,3.1,1.1c1.3,0,2.2-0.4,3-1.1c0.9-0.9,1.1-1.7,1.1-3c0-1.1-0.4-2-1.3-2.8
	C1141.4,8.4,1140.3,8.2,1139,8.2z M1117.1,14.5c-3.7-2-8.1-3-12.8-3c-5,0-9.3,1.1-13.3,3c-3.9,2.2-6.7,5-8.9,8.7
	c-2.2,3.7-3.3,7.8-3.3,12.4c0,4.8,1.1,8.9,3.3,12.6c2.2,3.7,5,6.5,8.9,8.7c3.9,2.2,8.3,3,13.1,3c2,0,4.1-0.2,6.3-0.7
	c2.2-0.4,3.9-1.1,5.4-2l-1.5-4.4c-1.5,0.9-3.3,1.3-5,1.7c-1.7,0.4-3.5,0.7-5.2,0.7c-3.9,0-7.6-0.9-10.7-2.6c-3-1.7-5.4-4.1-7.2-7
	c-1.7-3-2.6-6.5-2.6-10.4s0.9-7.2,2.6-10.2c1.7-3,4.1-5.4,7.2-7c3.1-1.7,6.8-2.6,10.7-2.6c3.9,0,7.6,0.9,10.7,2.4
	c3,1.5,5.4,3.9,7.2,6.7s2.6,6.1,2.6,10c0,3-0.4,5.4-1.1,7.2c-0.7,1.7-1.9,2.4-3.3,2.4c-0.9,0-1.5-0.2-2-0.9
	c-0.4-0.7-0.9-1.5-0.9-2.8V22.5h-5.9V26c-1.1-1.3-2.4-2.2-3.7-2.8c-1.5-0.7-3.3-0.9-5-0.9c-2.4,0-4.6,0.7-6.5,1.7
	c-2,1.1-3.5,2.8-4.6,4.8c-1.1,2-1.7,4.4-1.7,7c0,2.6,0.7,5,1.7,7c1.1,2,2.6,3.7,4.6,4.8c2,1.1,4.1,1.7,6.5,1.7
	c4.4,0,7.4-1.5,9.6-4.6c0.4,1.5,1.3,2.6,2.4,3.5c1.1,0.9,2.6,1.1,4.3,1.1c3.3,0,5.7-1.3,7.4-3.9c1.7-2.6,2.6-6.3,2.6-10.9
	s-1.1-8.5-3.3-12C1123.8,19.3,1121,16.5,1117.1,14.5z M1109.4,42.1c-1.5,1.5-3.3,2.2-5.6,2.2c-2.4,0-4.1-0.9-5.7-2.4
	c-1.5-1.5-2.2-3.5-2.2-6.1c0-2.6,0.7-4.6,2.2-6.1c1.5-1.5,3.3-2.2,5.7-2.2c2.4,0,4.1,0.7,5.6,2.2c1.5,1.5,2.2,3.5,2.2,6.1
	C1111.6,38.4,1110.8,40.6,1109.4,42.1z M1167.3,20.4c-2.2,0-3.9,0.4-5.7,1.1c-1.7,0.7-3.1,1.7-4.1,3v-3.7h-6.3v28.5h6.7V34.9
	c0-2.8,0.7-4.8,2.2-6.3c1.5-1.5,3.3-2.2,5.9-2.2c2.2,0,3.9,0.7,5,2c1.1,1.3,1.7,3,1.7,5.7v15.4h6.8V33.2c0-4.1-1.1-7.2-3.3-9.4
	C1173.6,21.5,1170.8,20.4,1167.3,20.4z M1199.1,14.7c1.3,0,2.6,0.4,3.7,1.1l2-5c-1.5-1.1-3.5-1.5-6.1-1.5c-3.3,0-5.7,0.9-7.4,2.6
	c-1.7,1.7-2.6,4.1-2.6,7.2v1.7h-4.8V26h4.8v22.8h6.8V26h7.6v-5.2h-7.8v-1.7C1194.9,16.2,1196.2,14.7,1199.1,14.7z M1391.6,20.4
	c-2,0-3.7,0.2-5.4,0.9c-1.5,0.7-3,1.5-4.1,2.6V9.5h-6.7v39.4h6.7V34.5c0-2.8,0.7-4.8,2.2-6.3c1.5-1.5,3.3-2.2,5.9-2.2
	c2.2,0,3.9,0.7,5,2c1.1,1.3,1.7,3,1.7,5.7v15.4h6.8V32.8c0-4.1-1.1-7.2-3.3-9.4C1398.1,21.5,1395.3,20.4,1391.6,20.4z M1412,49.1
	h6.7V20.6h-6.7V49.1z M1354.2,20.4c-2.4,0-4.6,0.2-6.8,0.9c-2.2,0.7-3.9,1.5-5.4,2.6l2.6,4.8c1.1-0.9,2.4-1.5,3.9-2.2
	c1.5-0.7,3.1-0.7,4.8-0.7c2.4,0,4.1,0.4,5.2,1.5c1.1,1.1,1.7,2.6,1.7,4.6v0.4h-7.4c-4.1,0-7,0.9-8.9,2.4c-2,1.5-2.8,3.7-2.8,6.1
	c0,1.7,0.4,3,1.3,4.4c0.9,1.3,2.2,2.4,3.7,3c1.5,0.7,3.5,1.1,5.7,1.1c2.2,0,3.9-0.4,5.4-1.1s2.6-1.5,3.5-2.8v3.5h6.3V32.3
	c0-4.1-1.1-7-3.3-9.1C1361.6,21.5,1358.3,20.4,1354.2,20.4z M1360.3,40.4c-0.4,1.5-1.5,2.6-2.8,3.3c-1.3,0.9-2.8,1.1-4.4,1.1
	c-1.7,0-3-0.4-3.9-1.1s-1.5-1.7-1.5-2.8c0-2.6,2-3.7,5.7-3.7h7V40.4z M1415.3,8.2c-1.3,0-2.2,0.4-3,1.1c-0.9,0.9-1.3,1.7-1.3,2.8
	s0.4,2.2,1.3,2.8c0.9,0.9,1.7,1.1,3,1.1c1.3,0,2.2-0.4,3-1.1c0.9-0.9,1.1-1.7,1.1-3c0-1.1-0.4-2-1.3-2.8
	C1417.5,8.4,1416.4,8.2,1415.3,8.2z M1227.3,22.3c-2.4-1.3-5-2-7.8-2c-2.8,0-5.4,0.7-7.8,2c-2.4,1.3-4.1,3-5.4,5.2
	c-1.3,2.2-1.9,4.8-1.9,7.4c0,2.6,0.6,5.2,1.9,7.6c1.3,2.2,3.1,3.9,5.4,5.2c2.4,1.3,4.8,2,7.8,2c2.8,0,5.4-0.7,7.8-2
	c2.4-1.3,4.1-3,5.4-5.2c1.3-2.2,2-4.8,2-7.6c0-2.8-0.7-5.2-2-7.4C1231.5,25.4,1229.5,23.6,1227.3,22.3z M1225.6,41.5
	c-1.5,1.7-3.7,2.4-6.1,2.4c-2.4,0-4.3-0.9-6.1-2.4c-1.5-1.5-2.4-3.7-2.4-6.5c0-2.8,0.9-4.8,2.4-6.5c1.5-1.7,3.5-2.4,6.1-2.4
	c2.4,0,4.6,0.9,6.1,2.4c1.5,1.5,2.4,3.7,2.4,6.5C1228,37.8,1227.1,39.7,1225.6,41.5z M1253.9,26c1.5,0,2.8,0.4,3.9,1.1
	c1.3,0.7,2.2,1.7,3,3l5-3c-1.1-2.2-2.6-3.7-4.8-4.8c-2.2-1.1-4.6-1.7-7.4-1.7c-3.1,0-5.7,0.7-8.1,2c-2.4,1.3-4.1,3-5.4,5.2
	c-1.3,2.2-2,4.8-2,7.4s0.7,5.2,2,7.6c1.3,2.2,3,3.9,5.4,5.2c2.4,1.3,5,2,7.8,2c2.8,0,5.2-0.7,7.4-1.7c2.2-1.1,3.7-2.8,4.8-5l-5-3
	c-0.9,1.3-1.7,2.4-3.1,3c-1.3,0.7-2.6,1.1-3.9,1.1c-2.6,0-4.6-0.9-6.1-2.4c-1.5-1.5-2.4-3.7-2.4-6.5c0-2.8,0.9-4.8,2.4-6.5
	C1249.5,26.9,1251.5,26,1253.9,26z M1271.9,49.1h6.7V20.6h-6.7V49.1z M1275.2,8.2c-1.3,0-2.2,0.4-3,1.1c-0.9,0.7-1.3,1.7-1.3,2.8
	s0.4,2.2,1.3,2.8c0.9,0.9,1.7,1.1,3,1.1c1.3,0,2.2-0.4,3.1-1.1c0.9-0.9,1.1-1.7,1.1-3c0-1.1-0.4-2-1.3-2.8
	C1277.2,8.2,1276.5,8.2,1275.2,8.2z M1323.1,20.4c-2.2,0-4.4,0.4-6.1,1.3s-3.3,2-4.6,3.5c-0.9-1.5-2.2-2.8-3.9-3.5
	c-1.7-0.9-3.5-1.1-5.7-1.1c-2,0-3.7,0.4-5.2,1.1c-1.5,0.7-2.8,1.7-3.9,2.8v-3.7h-6.3v28.5h6.8V34.9c0-2.8,0.7-4.8,2-6.3
	c1.3-1.5,3-2.2,5.4-2.2c2,0,3.7,0.7,4.8,2c1.1,1.3,1.7,3,1.7,5.7v15.4h6.7V35.2c0-2.8,0.7-4.8,2-6.3c1.3-1.5,3.1-2.2,5.4-2.2
	c2,0,3.7,0.7,4.8,2c1.1,1.3,1.8,3,1.8,5.7v15.4h6.7V33.4c0-4.1-1.1-7.2-3-9.4C1329.6,21.5,1326.8,20.4,1323.1,20.4z M1522.3,20.1
	c-0.2-3.9-0.6-8.3-3.3-11.3c-2.4-2.4-5.4-3.5-8.7-3.5c-3.9-0.4-8-0.7-12.2-0.9c-8.3-0.2-16.3-0.2-24.6,0c-4.1,0-8.5,0.2-12.6,0.4
	c-5.2,0.4-10.4,1.1-12.8,6.3c-2.2,4.6-2,10.4-2,15.4c0,4.4,0,8.9,0.2,13.3c0.2,5.9,0.7,13.3,6.7,15.9c3.5,1.1,7.2,1.7,10.9,2
	c3.7,0.2,7.6,0.2,11.3,0.2c7.8,0.2,15.9-0.2,23.7-0.2c5.4,0.2,11.1-0.4,16.3-2c4.6-1.5,5.7-6.5,6.3-10.7c0.4-4.4,0.6-8.5,0.4-12.8
	c0.4-3.3,0.4-6.5,0.4-9.6C1522.5,21.9,1522.5,21,1522.3,20.1z M1572.1,21.9c-2.2,0-3.9,0.4-5.7,1.1s-3,1.7-4.1,3v-3.7h-6.3v28.5h6.7
	V36.5c0-2.8,0.7-4.8,2.2-6.3c1.5-1.5,3.3-2.2,5.9-2.2c2.2,0,3.9,0.7,5,2c1.1,1.3,1.7,3,1.7,5.7V51h6.8V34.7c0-4.1-1.1-7.2-3.3-9.4
	C1578.4,23,1575.6,21.9,1572.1,21.9z M1540.6,50.6h6.8V22.1h-6.8V50.6z M1543.9,9.7c-1.3,0-2.2,0.4-3,1.1c-0.9,0.9-1.3,1.7-1.3,2.8
	s0.4,2.2,1.3,2.8c0.9,0.7,1.7,1.1,3,1.1c1.3,0,2.2-0.4,3-1.3c0.9-0.9,1.1-1.7,1.1-3c0-1.1-0.4-2-1.3-2.8
	C1546,9.9,1545.2,9.7,1543.9,9.7z M1603.9,16.2c1.3,0,2.6,0.4,3.7,1.1l2-5c-1.5-1.1-3.5-1.5-6.1-1.5c-3.3,0-5.7,0.9-7.4,2.6
	c-1.7,1.7-2.6,4.1-2.6,7.2v1.7h-4.8v5.2h4.8v22.8h6.8V27.5h7.6v-5.2h-7.8v-1.7C1599.8,17.8,1601.1,16.2,1603.9,16.2z M1632.2,23.8
	c-2.4-1.3-5-2-7.8-2c-2.8,0-5.4,0.7-7.8,2c-2.4,1.3-4.1,3-5.4,5.2c-1.3,2.2-1.9,4.8-1.9,7.4c0,2.6,0.7,5.2,1.9,7.6
	c1.3,2.2,3.1,3.9,5.4,5.2c2.4,1.3,4.8,2,7.8,2c2.8,0,5.4-0.7,7.8-2c2.4-1.3,4.1-3,5.4-5.2c1.3-2.2,2-4.8,2-7.6c0-2.8-0.6-5.2-2-7.4
	C1636.1,26.7,1634.3,25.2,1632.2,23.8z M1630.4,43c-1.5,1.7-3.7,2.4-6.1,2.4c-2.4,0-4.3-0.9-6.1-2.4c-1.5-1.5-2.4-3.7-2.4-6.5
	c0-2.6,0.9-4.8,2.4-6.5c1.5-1.7,3.7-2.4,6.1-2.4c2.4,0,4.6,0.9,6.1,2.4c1.5,1.7,2.4,3.7,2.4,6.5C1632.8,39.1,1632,41.2,1630.4,43z
	 M1796.4,21.9c-2,0-3.7,0.2-5.4,0.9s-3,1.5-4.1,2.6V11h-6.7v39.4h6.7V36c0-2.8,0.7-4.8,2.2-6.3c1.5-1.5,3.3-2.2,5.9-2.2
	c2.2,0,3.9,0.7,5,2c1.1,1.3,1.7,3,1.7,5.7v15.4h6.8V34.3c0-4.1-1.1-7.2-3.3-9.4C1802.9,23,1800.1,21.9,1796.4,21.9z M1759,21.9
	c-2.4,0-4.6,0.2-6.8,0.9c-2.2,0.7-3.9,1.5-5.4,2.6l2.6,4.8c1.1-0.9,2.4-1.5,3.9-2.2c1.5-0.7,3.1-0.7,4.8-0.7c2.4,0,4.1,0.4,5.2,1.5
	c1.1,1.1,1.7,2.6,1.7,4.6v0.4h-7.4c-4.1,0-7,0.9-8.9,2.4s-2.8,3.7-2.8,6.1c0,1.7,0.4,3,1.3,4.4s2.2,2.4,3.7,3
	c1.5,0.7,3.5,1.1,5.7,1.1c2.2,0,3.9-0.4,5.4-1.1c1.5-0.7,2.6-1.5,3.5-2.8v3.5h6.3V33.9c0-4.1-1.1-7-3.3-9.1
	C1766.2,23,1763.1,21.9,1759,21.9z M1765.1,41.7c-0.4,1.5-1.5,2.6-2.8,3.3c-1.3,0.9-2.8,1.1-4.3,1.1c-1.7,0-3.1-0.4-3.9-1.1
	c-0.9-0.7-1.5-1.7-1.5-2.8c0-2.6,2-3.7,5.7-3.7h7V41.7z M1820.1,9.7c-1.3,0-2.2,0.4-3,1.1c-0.9,0.9-1.3,1.7-1.3,2.8s0.4,2.2,1.3,2.8
	s1.7,1.1,3,1.1c1.3,0,2.2-0.4,3.1-1.3c0.9-0.9,1.1-1.7,1.1-3c0-1.1-0.4-2-1.3-2.8C1822.3,9.9,1821.2,9.7,1820.1,9.7z M1816.6,50.6
	h6.8V22.1h-6.8V50.6z M1676.8,50.6h6.7V22.1h-6.7V50.6z M1658.7,27.5c1.5,0,2.8,0.4,3.9,1.1c1.1,0.7,2.2,1.7,3,3l5-3
	c-1.1-2.2-2.6-3.7-4.8-4.8c-2.2-1.1-4.6-1.7-7.4-1.7c-3.1,0-5.7,0.7-8.1,2c-2.4,1.3-4.1,3-5.4,5.2c-1.3,2.2-2,4.8-2,7.4
	s0.6,5.2,2,7.6c1.3,2.4,3,3.9,5.4,5.2c2.4,1.3,5,2,7.8,2c2.8,0,5.2-0.7,7.4-1.7c2.2-1.1,3.7-2.8,4.8-5l-5-3c-0.9,1.3-1.7,2.4-3,3
	c-1.3,0.7-2.6,1.1-3.9,1.1c-2.6,0-4.6-0.9-6.1-2.4c-1.5-1.5-2.4-3.7-2.4-6.5s0.9-4.8,2.4-6.5C1654.2,28.4,1656.3,27.5,1658.7,27.5z
	 M1680,9.7c-1.3,0-2.2,0.4-3,1.1c-0.9,0.9-1.3,1.7-1.3,2.8s0.4,2.2,1.3,2.8s1.7,1.1,3,1.1c1.3,0,2.2-0.4,3-1.3
	c0.9-0.9,1.1-1.7,1.1-3c0-1.1-0.4-2-1.3-2.8C1682.2,9.9,1681.3,9.7,1680,9.7z M1727.9,21.9c-2.2,0-4.3,0.4-6.1,1.3
	c-1.7,0.9-3.3,2-4.6,3.5c-0.9-1.5-2.2-2.8-3.9-3.5c-1.7-0.9-3.5-1.3-5.7-1.3c-2,0-3.7,0.4-5.2,1.1c-1.5,0.7-2.8,1.7-3.9,2.8v-3.7
	h-6.3v28.5h6.8V36.2c0-2.8,0.7-4.8,2-6.3c1.3-1.5,3-2.2,5.4-2.2c2,0,3.7,0.7,4.8,2c1.1,1.3,1.7,3,1.7,5.7v15.4h6.7V36.5
	c0-2.8,0.7-4.8,2-6.3c1.3-1.5,3.1-2.2,5.4-2.2c2,0,3.7,0.7,4.8,2c1.1,1.3,1.7,3,1.7,5.7V51h6.8V34.7c0-4.1-1.1-7.2-3.1-9.4
	C1734.4,23,1731.4,21.9,1727.9,21.9z M1900.6,13.4l-12.4,28.7l-12.4-28.7h-7h-0.7h-31.1v5.9h12.4v31.3h7V19.3h12.4v-4.6l15.7,35.9
	h6.8l16.3-37.2H1900.6z"/>
<path class="st1" d="M1496.7,30.6c-7.1-4.2-14.1-8.3-21.1-12.4c0,8.3,0,16.5,0,24.8C1482.7,38.8,1489.7,34.7,1496.7,30.6z"/>
</svg>
