<svg width="759" height="61" viewBox="0 0 759 61" fill="none" xmlns="http://www.w3.org/2000/svg">
<path d="M321.106 18.2299C321.106 14.3143 322.846 12.3566 326.544 12.3566C328.284 12.3566 330.024 12.7916 331.33 13.8793L334.375 5.3957C333.287 4.7431 331.982 4.09034 330.46 3.87281C328.937 3.43774 327.197 3.22037 325.456 3.22037C320.453 3.22037 316.537 4.52536 313.927 7.35328C311.099 9.96368 309.794 13.662 309.794 18.4477V20.1878H303.485V29.3243H309.794V59.9964H321.541V29.3243H331.547V20.1878H321.106V18.2299ZM405.944 28.2367C409.859 28.2367 412.905 30.1944 415.08 33.8925L424.216 28.8891C422.694 25.6261 420.518 23.0157 417.255 21.2754C413.992 19.5352 410.294 18.6652 406.161 18.6652C401.81 18.6652 397.895 19.5352 394.414 21.2754C390.934 23.0157 388.323 25.6262 386.366 28.6716C384.408 31.9346 383.538 35.4152 383.538 39.5483C383.538 43.4639 384.408 47.1619 386.366 50.4249C388.323 53.6879 390.934 56.0808 394.414 57.8211C397.895 59.5614 401.81 60.4314 406.161 60.4314C410.512 60.4314 414.21 59.5614 417.255 57.8211C420.301 56.0808 422.694 53.4704 424.216 50.2074L415.08 45.2041C413.122 48.9021 410.077 50.8599 405.944 50.8599C402.898 50.8599 400.288 49.7724 398.33 47.8146C396.372 45.8568 395.284 43.0288 395.284 39.5483C395.284 36.0677 396.372 33.2397 398.33 31.2819C400.288 29.1066 402.898 28.2367 405.944 28.2367ZM239.313 0.392334C237.138 0.392334 235.397 1.04499 234.092 2.35018C232.787 3.65538 232.134 5.17801 232.134 7.1358C232.134 9.0936 232.787 10.6163 234.092 11.7039C235.397 12.7916 237.138 13.6618 239.313 13.6618C241.488 13.6618 243.229 13.0091 244.534 11.7039C245.839 10.3987 246.492 8.87612 246.492 6.91832C246.492 5.17806 245.839 3.65538 244.534 2.35018C243.229 1.04499 241.488 0.392334 239.313 0.392334ZM280.862 18.4477C278.034 18.4477 275.641 18.8827 273.248 19.7528C270.855 20.623 268.898 21.928 267.375 23.6683V18.8826H256.063V59.5612H267.81V39.5483C267.81 35.8502 268.68 33.2397 270.42 31.2819C272.161 29.5417 274.553 28.4541 277.599 28.4541C280.209 28.4541 282.385 29.3242 283.69 30.847C284.995 32.3697 285.865 34.7627 285.865 38.0257V59.3437H297.612V36.0678C297.612 30.1944 296.089 25.6261 293.044 22.5806C289.998 19.5351 285.865 18.4477 280.862 18.4477ZM190.368 46.5092L180.797 19.1001H170.79L160.784 46.5092L151.212 19.1001H140.988H140.118H130.546L120.757 46.5092L111.186 19.1001H101.179L91.1729 46.5092L81.6014 19.1001H71.3773H70.5072H60.9357L51.1467 46.5092L41.5753 19.1001H31.5687L21.5622 46.5092L11.9907 19.1001H0.89653L15.4713 59.779H26.783L36.1369 34.5449L45.2733 59.779H56.5851L70.9423 20.4053L85.0819 59.779H96.3937L105.748 34.5449L114.884 59.779H126.196L140.553 20.4053L154.693 59.779H166.004L175.358 34.5449L184.495 59.779H195.806L210.599 19.1001H200.157L190.368 46.5092ZM218.212 45.6393C216.255 45.6393 214.514 46.2917 212.992 47.5969C211.686 48.9021 210.816 50.6424 210.816 52.8177C210.816 54.9931 211.469 56.7334 212.992 58.0386C214.297 59.3438 216.037 60.2139 218.212 60.2139C220.17 60.2139 221.91 59.5613 223.433 58.0386C224.738 56.7334 225.608 54.7755 225.608 52.8177C225.608 50.6424 224.956 48.9021 223.433 47.5969C221.91 46.2917 220.17 45.6393 218.212 45.6393ZM233.44 59.779H245.186V19.1001H233.44V59.779ZM430.96 59.779H442.707V19.1001H430.96V59.779ZM367.658 21.2754C364.395 19.5352 360.479 18.6652 356.128 18.6652C351.778 18.6652 348.08 19.5352 344.599 21.2754C341.119 23.0157 338.508 25.6262 336.55 28.6716C334.593 31.7171 333.723 35.4152 333.723 39.5483C333.723 43.4639 334.593 47.1619 336.55 50.4249C338.508 53.6879 341.119 56.0808 344.599 57.8211C348.08 59.5614 351.778 60.4314 356.128 60.4314C360.479 60.4314 364.177 59.5614 367.658 57.8211C370.921 56.0808 373.749 53.4704 375.489 50.4249C377.229 47.3795 378.317 43.6814 378.317 39.5483C378.317 35.6327 377.447 31.9346 375.489 28.6716C373.531 25.4086 371.138 23.0157 367.658 21.2754ZM363.742 47.5969C361.784 49.5547 359.391 50.6424 356.346 50.6424C353.3 50.6424 350.908 49.5547 348.95 47.5969C346.992 45.6391 345.904 42.8113 345.904 39.3308C345.904 35.8503 346.992 33.2398 348.95 31.0644C350.908 28.8891 353.3 28.0189 356.346 28.0189C359.391 28.0189 361.784 29.1066 363.742 31.0644C365.7 33.0222 366.57 35.8503 366.57 39.3308C366.57 42.8113 365.7 45.4216 363.742 47.5969ZM692.87 28.2367C696.786 28.2367 699.831 30.1944 702.006 33.8925L711.143 28.8891C709.62 25.6261 707.445 23.0157 704.182 21.2754C700.919 19.5352 697.221 18.6652 693.088 18.6652C688.737 18.6652 684.821 19.5352 681.341 21.2754C677.86 23.0157 675.25 25.6262 673.292 28.6716C671.334 31.9346 670.464 35.4152 670.464 39.5483C670.464 43.4639 671.334 47.1619 673.292 50.4249C675.25 53.6879 677.86 56.0808 681.341 57.8211C684.821 59.5614 688.737 60.4314 693.088 60.4314C697.438 60.4314 701.136 59.5614 704.182 57.8211C707.227 56.0808 709.62 53.4704 711.143 50.2074L702.006 45.2041C700.049 48.9021 697.003 50.8599 692.87 50.8599C689.825 50.8599 687.214 49.7724 685.256 47.8146C683.299 45.8568 682.211 43.0288 682.211 39.5483C682.211 36.0677 683.299 33.2397 685.256 31.2819C687.214 29.1066 689.825 28.2367 692.87 28.2367ZM658.5 45.6393C656.542 45.6393 654.802 46.2917 653.279 47.5969C651.974 48.9021 651.104 50.6424 651.104 52.8177C651.104 54.9931 651.756 56.7334 653.279 58.0386C654.584 59.3438 656.324 60.2139 658.5 60.2139C660.458 60.2139 662.198 59.5613 663.721 58.0386C665.026 56.7334 665.896 54.7755 665.896 52.8177C665.896 50.6424 665.243 48.9021 663.721 47.5969C662.415 46.2917 660.675 45.6393 658.5 45.6393ZM756.172 28.6716C754.214 25.4086 751.604 23.0157 748.341 21.2754C745.078 19.5352 741.162 18.6652 736.812 18.6652C732.461 18.6652 728.763 19.5352 725.283 21.2754C721.802 23.0157 719.192 25.6262 717.234 28.6716C715.276 31.7171 714.406 35.4152 714.406 39.5483C714.406 43.4639 715.276 47.1619 717.234 50.4249C719.192 53.6879 721.802 56.0808 725.283 57.8211C728.763 59.5614 732.461 60.4314 736.812 60.4314C741.162 60.4314 744.861 59.5614 748.341 57.8211C751.604 56.0808 754.432 53.4704 756.172 50.4249C757.913 47.3795 759 43.6814 759 39.5483C759 35.4152 757.913 31.7171 756.172 28.6716ZM744.208 47.5969C742.25 49.5547 739.857 50.6424 736.812 50.6424C733.766 50.6424 731.373 49.5547 729.416 47.5969C727.458 45.6391 726.37 42.8113 726.37 39.3308C726.37 35.8503 727.458 33.2398 729.416 31.0644C731.373 28.8891 733.766 28.0189 736.812 28.0189C739.857 28.0189 742.25 29.1066 744.208 31.0644C746.166 33.0222 747.036 35.8503 747.036 39.3308C747.036 42.8113 745.948 45.4216 744.208 47.5969ZM637.182 0.392334C635.006 0.392334 633.266 1.04499 631.961 2.35018C630.656 3.65538 630.003 5.17801 630.003 7.1358C630.003 9.0936 630.656 10.6163 631.961 11.7039C633.266 12.7916 635.006 13.6618 637.182 13.6618C639.357 13.6618 641.097 13.0091 642.402 11.7039C643.707 10.3987 644.36 8.87612 644.36 6.91832C644.36 5.17806 643.707 3.65538 642.402 2.35018C641.097 1.04499 639.357 0.392334 637.182 0.392334ZM436.833 0.392334C434.658 0.392334 432.918 1.04499 431.613 2.35018C430.307 3.65538 429.655 5.17801 429.655 7.1358C429.655 9.0936 430.307 10.6163 431.613 11.7039C432.918 12.7916 434.658 13.6618 436.833 13.6618C439.009 13.6618 440.749 13.0091 442.054 11.7039C443.359 10.3987 444.012 8.87612 444.012 6.91832C444.012 5.17806 443.359 3.65538 442.054 2.35018C440.749 1.04499 439.009 0.392334 436.833 0.392334ZM549.08 18.4477C545.817 18.4477 542.555 18.8827 539.509 19.7528C536.464 20.623 533.853 21.7105 531.46 23.4508L535.593 31.7171C537.116 30.6295 538.856 29.5417 540.814 28.8891C542.99 28.2365 544.947 27.8014 547.123 27.8014C550.168 27.8014 552.561 28.454 554.084 29.9768C555.606 31.282 556.477 33.2399 556.477 35.8503H547.123C541.249 35.8503 536.899 36.938 534.071 39.1133C531.243 41.2886 529.72 44.3341 529.72 48.0321C529.72 50.425 530.373 52.6004 531.46 54.3406C532.765 56.2984 534.506 57.6036 536.681 58.6913C539.074 59.779 541.684 60.2139 544.73 60.2139C550.821 60.2139 554.954 58.2562 557.129 54.5581V59.5612H568.223V36.5028C568.223 30.4118 566.483 26.0613 563.22 23.0158C560.175 19.9704 555.389 18.4477 549.08 18.4477ZM556.912 46.9445C556.259 48.6847 555.171 50.2075 553.649 51.0776C552.126 51.9478 550.386 52.3828 548.21 52.3828C546.253 52.3828 544.512 51.9478 543.425 51.0776C542.337 50.2075 541.684 48.9021 541.684 47.5969C541.684 44.3339 544.077 42.8113 548.863 42.8113H556.912V46.9445ZM505.574 18.4477C502.528 18.4477 499.7 19.1001 497.308 20.1878C494.697 21.2755 492.739 23.0158 490.999 25.1912C489.694 23.0158 487.736 21.2755 485.343 20.1878C482.95 19.1001 480.34 18.4477 477.512 18.4477C474.902 18.4477 472.509 18.8827 470.333 19.7528C468.158 20.623 466.2 21.928 464.895 23.6683V19.1001H453.583V59.779H465.33V39.3308C465.33 35.8503 466.2 33.2397 467.723 31.2819C469.246 29.5417 471.421 28.6716 474.249 28.6716C479.47 28.6716 481.863 31.9347 481.863 38.2431V59.5612H493.61V39.1133C493.61 35.6328 494.48 33.0222 496.002 31.0644C497.525 29.3242 499.7 28.4541 502.528 28.4541C504.921 28.4541 506.879 29.3242 508.184 30.847C509.489 32.3697 510.142 34.7627 510.142 38.0257V59.3437H521.889V36.0678C521.889 29.9769 520.366 25.6261 517.321 22.5806C514.71 19.9702 510.577 18.4477 505.574 18.4477ZM603.899 18.4477C601.288 18.4477 598.896 18.8827 596.72 19.7528C594.545 20.623 592.587 21.7106 591.064 23.2333V3.65533H579.318V59.5612H591.064V39.5483C591.064 35.8502 591.935 33.2397 593.675 31.2819C595.415 29.5417 597.808 28.4541 600.853 28.4541C603.464 28.4541 605.639 29.3242 606.944 30.847C608.25 32.3697 609.12 34.7627 609.12 38.0257V59.3437H620.867V36.0678C620.867 30.1944 619.344 25.6261 616.298 22.5806C613.253 19.5351 608.902 18.4477 603.899 18.4477ZM631.308 59.779H643.055V19.1001H631.308V59.779Z" fill="white"/>
</svg>
